<svg xmlns="http://www.w3.org/2000/svg" viewBox="0 0 1600 1200"><defs><style>.cls-1{fill:#ecebe6;}.cls-1,.cls-7{stroke:#000;stroke-linecap:round;stroke-linejoin:round;stroke-width:3px;}.cls-2{fill:#679780;}.cls-3{fill:#fee502;}.cls-4{fill:#e7b45b;}.cls-5{fill:#bf8c4b;}.cls-6{fill:#d3c9d7;}.cls-7{fill:none;}</style></defs><g id="collecting"><path class="cls-1" d="M1232.19,313.91c-38.83-23.41-95-22.58-142.11-24.66-60.58-2.67-117,11.47-188.29,46.74,30.46-17.64,78-53.75,95.45-80.85,22-34.06,27.26-109.13-15.68-131.87C940.63,101.6,881.4,135,855.67,166.12c-27.79,33.59-42.73,75.53-51.46,117.62-3.36,16.23-6.82,35.43-8.37,54.7-30.14-4.37-93.16-19.38-130.24-39.06S587.38,256.5,533,253.22c-62.15-3.75-107.92,6.53-149.14,35.24-50.51,35.19-84.65,92.38-92.16,151.64-5.16,40.83.25,83.2,4.84,123.64,6.21,54.68,21.92,109.2,36.62,162.29,15.68,56.59,40.77,124.68,131.46,239.56h697c45.27-57.39,91.83-111.92,118.29-172.62,25.09-57.53,52.82-129.82,63.06-191.31,7.67-46.1,13.58-110.76-4.23-154.67C1308.34,372,1271,337.31,1232.19,313.91Z"/><path class="cls-2" d="M1009.36,385.05a44.8,44.8,0,0,0,2.2,7.46c10.6,27.11,46.37,42.48,74,29.54,11.77-5.51,19.78-15.34,24.11-26.84h0c8-21.4,3.33-48.54-13.71-64.13-8.54,15.94-38,8.5-40-9.82-2.36,18.78-18,46.44-36.63,58.83A41,41,0,0,1,1009.36,385.05ZM917.06,569.2l0,.21a34.77,34.77,0,0,0,.82,6.71c5.27,23.68,34.61,45.25,59.35,38.65A50.67,50.67,0,0,0,999.87,602h0c21.09-20.64,22.4-57.78,1.34-77.68-16.43,8.54-40.39,8.25-45.52-5.15,6.07,18-11.12,39.08-26.94,46.76A33.38,33.38,0,0,1,923.3,568,36.09,36.09,0,0,1,917.06,569.2ZM686.61,402.53c-14.42,1.67-28.84,8-37.84,16.35C637,429.76,623.66,454.36,634.1,478.8c15.2-5.59,32.61,2.66,33.66,23.94,3.94-13,32.32-25.37,49.93-19.88a19.22,19.22,0,0,1,9.91,6.66c18.54-24.24,19.85-62.16-10.13-81.29C708.85,402.72,697.73,401.23,686.61,402.53Zm-10-92.15a56.83,56.83,0,0,1,8-10.13c14.73-14.62,34.33-15.57,43,12.67,4-13.93,17-25.91,31.09-29.63a33.2,33.2,0,0,1,12.83-1.13c6-22.19-.1-41.26-12.83-53.49,31.89-3.85,64.68-2.08,84.11,18.12a56,56,0,0,1,11.1,17A77.11,77.11,0,0,1,859,281.87c5.65-16.84,19.73-22,33.77-19.41a44.74,44.74,0,0,1,12,4.07c11.79,5.92,21.62,17,23.58,30.26A138.45,138.45,0,0,1,954.07,263c79.79-76.21,231.32-24.5,266.08,83.75,12.89,40.18-.9,89.37-25.3,123.88a68.81,68.81,0,0,1-4.49,5.68c-19.47-8.32-39.25-8.19-42.74,7.41-4.28,19.14,24,13.88,42.74-7.41A88.84,88.84,0,0,1,1213.84,491c30.75,27,21.71,91.07-1.16,122.87-10.58,14.71-21.94,27.1-35.24,36.6a57.66,57.66,0,0,0,1.16-18.26,68.29,68.29,0,0,0-9.69-28.83,15.55,15.55,0,0,1-1.73.87c-12.86,5.44-36.89,6.88-43.36-5.13-.82,15.86-15.6,29.36-32.27,34.54a49.21,49.21,0,0,1-11.65,2.17,60.92,60.92,0,0,0,.58,6.18,56.44,56.44,0,0,0,16.26,32.59l-.12.13c-17.77,1.82-30-.34-46.32,6.42-14.87,6.16-27.41,11.39-43.82,12.24-13.27.69-28.21,1.2-41.77-1.47.64-2.14,1.33-4.22,2.06-6.22.89-2.44,1.83-4.75,2.83-6.86l.12-.27a36.36,36.36,0,0,1-9.6-6.21,38.52,38.52,0,0,1-3.12-3.21c-3.08-3.53-6.06-8.13-7-12.53,2.91-.51,5.12-1.81,5.9-4.32,1.84-6-5.78-5.26-6.17,1a11.94,11.94,0,0,0,.27,3.29,21.69,21.69,0,0,1-4.35.25c-7.45-.24-16.6-3.29-19.55-4.44a38.1,38.1,0,0,1-5.72-2.86c-5,7.08-10,14.08-15,21.26-16.48-8.11-32-17.79-44.71-28.4-1.44-1.21-2.92-2.43-4.41-3.69,15.78-19.66,27.42-48-2.39-54.57-12.21-2.69-20.22,3.7-20.77,17.41-.64,15.91,11.56,27.37,23.16,37.16-6.39,8-13.46,14.5-18.73,17.57a95.12,95.12,0,0,1-17,7.69h0c-2.6-3.81-5.2-7.72-7.77-11.78-.62-1-1.24-2-1.86-3l0,0a58.36,58.36,0,0,1-17.8,7.67c1.36,3.21,2.72,6.23,4.09,9.13q.79,1.68,1.59,3.3l-.07,0c-15,2.42-31,3.21-45.85,1.25-24.81-3.28-39.11-11.8-50.32-19.71a56.82,56.82,0,0,0,12-20.73,53.38,53.38,0,0,0,2-8.55v-.14a23.77,23.77,0,0,1-14.75-3.52,23.08,23.08,0,0,1-3.67-2.94,15.72,15.72,0,0,1-2.61-3.45c6.64-5.46,12.78-15.73,4.79-16.55-8.65-.88-8.78,9.53-4.79,16.55a16,16,0,0,1-5.43,3.18c-9.07,2.54-21.38-1.24-26.94-10.4-5-8.18-8.15-14.92-3.69-29.82C651,585.1,634,591.64,619.78,590.33a59.45,59.45,0,0,0-7,29.51c-25.36-12.77-43.2-45-52.6-78.32,2-1.91,3.87-3.64,5.51-5.12,10.86-9.84,20.7-20.75,30.87-30.28,8.15-7.64,8.61-14.39,1.34-14.29-6.81.1-17.45,6.84-14.16,0,2.36-4.93,17.19-23.94,7.65-25.23-3.75-.5-9.54,4.87-13.86,9.91,1.68-2.44,2.12-3.85-.32-3.38-3.44.66-6.87,3.44-9.57,7,1.91-3.09,3.33-6.22-1.81-4.58-4.14,1.32-9.35,9.49-14.36,14.89,0-27.68,11-48.92,14.71-56.44-5.12-10.19-8.38-20.54-9-26.77A121.3,121.3,0,0,1,561.13,363c5-18.43,15-33.37,28.67-40,18-8.72,34.77-4.91,50,2.22a113.42,113.42,0,0,1,22.35-42.8C663.59,293.64,668.37,303.75,676.65,310.38Z"/><path class="cls-3" d="M1130.64,650.1c2.71-5.75,6.76-14.16,10.37-20.85C1128.3,626.38,1119.59,641.45,1130.64,650.1Zm48-17.91a57.66,57.66,0,0,1-1.16,18.26h0c-4,17.69-16.25,33-34.58,36.95v0c-30-.83-47.73-23.56-50.57-48.13q-.27-2.22-.36-4.44l-.37-1.17c16.67-5.18,31.45-18.68,32.27-34.54,6.47,12,30.5,10.57,43.36,5.13a15.55,15.55,0,0,0,1.73-.87A68.29,68.29,0,0,1,1178.6,632.19Z"/><path class="cls-2" d="M1147.62,483.7c3.49-15.6,23.27-15.73,42.74-7.41C1171.57,497.58,1143.34,502.84,1147.62,483.7Z"/><path class="cls-4" d="M1142.85,687.38v0a43.06,43.06,0,0,1-6.75.9c-16.66.93-29.91-4.65-39.36-13.72A56.44,56.44,0,0,1,1080.48,642l11.8-2.74C1095.12,663.82,1112.88,686.55,1142.85,687.38Z"/><path class="cls-3" d="M1130.64,650.1c-11.05-8.65-2.34-23.72,10.37-20.85C1137.4,635.94,1133.35,644.35,1130.64,650.1Z"/><path class="cls-3" d="M1073.21,376.93a184.31,184.31,0,0,0-11-21.9C1048,365.38,1059,384.11,1073.21,376.93ZM1096,331.07c17,15.59,21.76,42.73,13.71,64.13h0A45.11,45.11,0,0,1,1093,408.68c-25,11.72-56.72.22-70.35-22.18a46.23,46.23,0,0,1-3.29-6.42c18.58-12.39,34.27-40.05,36.63-58.83C1058,339.57,1087.44,347,1096,331.07Z"/><path class="cls-4" d="M1093,408.68a45.11,45.11,0,0,0,16.73-13.47c-4.33,11.5-12.34,21.33-24.11,26.84-27.64,12.94-63.41-2.43-74-29.54l11-6h0C1036.23,408.9,1067.91,420.4,1093,408.68Z"/><path d="M1092.28,639.25l-11.8,2.74a60.92,60.92,0,0,1-.58-6.18,49.21,49.21,0,0,0,11.65-2.17l.37,1.17Q1092,637,1092.28,639.25Z"/><path class="cls-3" d="M1062.21,355a184.31,184.31,0,0,1,11,21.9C1059,384.11,1048,365.38,1062.21,355Z"/><path d="M1022.6,386.5h0l-11,6a44.8,44.8,0,0,1-2.2-7.46,41,41,0,0,0,9.95-5A46.23,46.23,0,0,0,1022.6,386.5Z"/><path class="cls-3" d="M981.55,556.19c-5.52-5.7-12.65-7.7-17.28-3.43S961.69,564,965.39,570C970.88,565.6,976.46,561.12,981.55,556.19Zm19.68-31.89c21.06,19.9,19.75,57-1.34,77.68h0a52.12,52.12,0,0,1-11.38,4.5c-23.94,6.39-52.19-13.6-58.75-36.35a34.93,34.93,0,0,1-1-4.23c15.82-7.68,33-28.78,26.94-46.76C960.84,532.55,984.8,532.84,1001.23,524.3Z"/><path class="cls-4" d="M988.49,606.49a52.12,52.12,0,0,0,11.38-4.5,50.67,50.67,0,0,1-22.62,12.78c-24.74,6.6-54.08-15-59.35-38.65h0l11.83-6C936.3,592.89,964.55,612.88,988.49,606.49Z"/><path class="cls-5" d="M951.66,675.39c.14.25.3.5.45.75,2.7,4.34,9.21,8.39,14.21,9.39l.45.15c-.73,2-1.42,4.08-2.06,6.22a210.94,210.94,0,0,0-6.16,27.3c-4.3,27.19-4.73,53.67-4.73,81.77,0,48.44-2.35,91.67,6.95,138.14,3.87,19.32,11.08,34.92,25.35,60.5h-155c4.73-6.87,13-18.3,15.67-27.2,4-13.32,5.09-31.73,5-45.61-.15-32.5.49-55,0-87.53-.77-51.57-9.53-87.82-33.34-133.26-7.29-13.91-13.67-24.35-19.76-36.71q-.79-1.62-1.59-3.3l1-.46,14.63-13.34h0c2.57,4.06,5.17,8,7.77,11.78h0c18.18,26.59,36.72,48.18,50.44,78.56,8.07-22.41,13.36-38.69,24.06-55.92,3.37-5.42,6.86-10.66,10.4-15.81,4.94-7.18,10-14.18,15-21.26a38.1,38.1,0,0,0,5.72,2.86c3,1.15,12.1,4.2,19.55,4.44l0,.72C946.63,663.3,948.45,669.92,951.66,675.39Z"/><path class="cls-3" d="M981.55,556.19c-5.09,4.93-10.67,9.41-16.16,13.77-3.7-6-5.78-12.9-1.12-17.2S976,550.49,981.55,556.19Z"/><path d="M969.72,678.55l-.12.27c-1,2.11-1.94,4.42-2.83,6.86l-.45-.15c-5-1-11.51-5-14.21-9.39-.15-.25-.31-.5-.45-.75a76.86,76.86,0,0,1,5.34-6.26,38.52,38.52,0,0,0,3.12,3.21A36.36,36.36,0,0,0,969.72,678.55Z"/><path class="cls-2" d="M949.75,653.31c.39-6.29,8-7,6.17-1-.78,2.51-3,3.81-5.9,4.32A11.94,11.94,0,0,1,949.75,653.31Z"/><path d="M957,669.13a76.86,76.86,0,0,0-5.34,6.26c-3.21-5.47-5-12.09-6-17.82l0-.72a21.69,21.69,0,0,0,4.35-.25C950.94,661,953.92,665.6,957,669.13Z"/><path d="M929.74,570.14l-11.83,6h0a34.77,34.77,0,0,1-.82-6.71l0-.21A36.09,36.09,0,0,0,923.3,568a33.38,33.38,0,0,0,5.47-2.12A34.93,34.93,0,0,0,929.74,570.14Z"/><path class="cls-3" d="M903.69,248.42c-6.88,1.25-12.26,7.22-10.8,13.42l-.11.62c-14-2.55-28.12,2.57-33.77,19.41a77.11,77.11,0,0,0-5.07-18.06c2.13-25,18.1-47.93,49.44-48.34l0-.25c23.46,3.1,45.4,19.16,50.66,47.76a138.45,138.45,0,0,0-25.7,33.81c-2-13.31-11.79-24.34-23.58-30.26l.36-.72S904.86,257.48,903.69,248.42Z"/><path class="cls-3" d="M905.15,265.81l-.36.72a44.74,44.74,0,0,0-12-4.07l.11-.62c-1.46-6.2,3.92-12.17,10.8-13.42C904.86,257.48,905.15,265.81,905.15,265.81Z"/><path class="cls-4" d="M903.41,215.22l0,.25c-31.34.41-47.31,23.35-49.44,48.34a56,56,0,0,0-11.1-17l.12-.11C853.88,222.39,879.43,212.05,903.41,215.22Z"/><path class="cls-2" d="M853.9,584.15c29.81,6.55,18.17,34.91,2.39,54.57-11.6-9.79-23.8-21.25-23.16-37.16C833.68,587.85,841.69,581.46,853.9,584.15Z"/><path d="M810.87,649.24c.62,1,1.24,2,1.86,3h0l-14.63,13.34-1,.46c-1.37-2.9-2.73-5.92-4.09-9.13a58.36,58.36,0,0,0,17.8-7.67Z"/><path class="cls-3" d="M720.31,276.93c-2.29-6.36-4.51-13.08-7.37-19.67-4.83,4.91-8.32,11-4.68,16.11S716.3,278.57,720.31,276.93Zm38.42-48.26c12.73,12.23,18.84,31.3,12.83,53.49a33.2,33.2,0,0,0-12.83,1.13c-14.05,3.72-27.12,15.7-31.09,29.63-8.64-28.24-28.24-27.29-43-12.67C666,280.3,670.8,239.2,695.87,219.78,720,209.44,743.87,214.39,758.73,228.67Z"/><path class="cls-4" d="M752.35,964.34c0,7.12-.69,22.39-1.08,29.71-21.25,4.66-40.89,5.18-63.6,5.18s-43.44-1.14-58.33-5.18c.37-1.5-.34-26.29.84-33.72,15.2,13.58,47.67,11.83,63.84,11.83S745.72,968.93,752.35,964.34Z"/><path class="cls-3" d="M722.12,947.78c18.75,4.07,30.23,9.44,30.23,16.56-6.63,4.59-42.16,7.82-58.33,7.82s-48.64,1.75-63.84-11.83c1.3-8.12,21.43-11.84,28.6-13.23A155.59,155.59,0,0,1,722.12,947.78Z"/><path class="cls-4" d="M717.47,408.23c30,19.13,28.67,57,10.13,81.29a19.22,19.22,0,0,0-9.91-6.66l0-.1c14-24.07,12.66-57.1-14.65-74.53a40.09,40.09,0,0,0-16.46-5.7C697.73,401.23,708.85,402.72,717.47,408.23Z"/><path class="cls-3" d="M682.32,465.3a163.4,163.4,0,0,1,2.9-22.93C670.1,446.94,668.22,464.91,682.32,465.3Zm20.75-57.07c27.31,17.43,28.65,50.46,14.65,74.53l0,.1c-17.61-5.49-46,6.85-49.93,19.88-1-21.28-18.46-29.53-33.66-23.94-10.44-24.44,2.92-49,14.67-59.92,9-8.34,23.42-14.68,37.84-16.35A40.09,40.09,0,0,1,703.07,408.23Z"/><path class="cls-3" d="M712.94,257.26c2.86,6.59,5.08,13.31,7.37,19.67-4,1.64-8.44,1.48-12-3.56S708.11,262.17,712.94,257.26Z"/><path d="M716.51,621.45v.14a53.38,53.38,0,0,1-2,8.55l-14.19-5.55a60.86,60.86,0,0,0,1.35-6.55l.07-.11A23.77,23.77,0,0,0,716.51,621.45Z"/><path class="cls-4" d="M700.34,624.59l14.19,5.55a56.82,56.82,0,0,1-12,20.73h0a57.2,57.2,0,0,1-58,16.94,37.21,37.21,0,0,1-4.7-1.64v0C670.18,671.26,693.6,650.19,700.34,624.59Z"/><path class="cls-3" d="M643.8,632.76c3-6,7-14.1,10.31-19.83C640.44,611.13,630.67,625.7,643.8,632.76Zm56.54-8.17c-6.74,25.6-30.16,46.67-60.6,41.55v0c-17.51-7.38-26.66-26.73-27-46.33a59.45,59.45,0,0,1,7-29.51C634,591.64,651,585.1,659.42,574.5c-4.46,14.9-1.28,21.64,3.69,29.82,5.56,9.16,17.87,12.94,26.94,10.4a16,16,0,0,0,5.43-3.18,15.72,15.72,0,0,0,2.61,3.45,23.08,23.08,0,0,0,3.67,2.94l-.07.11A60.86,60.86,0,0,1,700.34,624.59Z"/><path class="cls-2" d="M700.27,595c8,.82,1.85,11.09-4.79,16.55C691.49,604.52,691.62,594.11,700.27,595Z"/><path class="cls-4" d="M693.67,220.76c.73-.34,1.47-.67,2.2-1C670.8,239.2,666,280.3,684.67,300.25a56.83,56.83,0,0,0-8,10.13c-8.28-6.63-13.06-16.74-14.52-27.93C659.11,259.37,670.18,231.74,693.67,220.76Z"/><path class="cls-3" d="M685.22,442.37a163.4,163.4,0,0,0-2.9,22.93C668.22,464.91,670.1,446.94,685.22,442.37Z"/><path class="cls-3" d="M643.8,632.76c-13.13-7.06-3.36-21.63,10.31-19.83C650.79,618.66,646.75,626.72,643.8,632.76Z"/><path class="cls-6" d="M567.59,480.21a27.49,27.49,0,0,0-2.15,3.37C566,482.69,566.81,481.46,567.59,480.21ZM448.35,661.94a98.56,98.56,0,0,1,35.95,21.82,28,28,0,0,1,4.45,5.49c.48.76.93,1.54,1.34,2.35,5.88,11.24,6.26,26.56,6.26,38.89,0,15.6-4.37,43.8-4.14,53.63,1.72,3.89,7.75,12,9.33,15.86a67.51,67.51,0,0,1-11.44-.44c-16.4-1.54-42.61-5.76-42.61-5.76v-8.12h0c5.57-3.54,11-7.16,16.37-10.38,9.77-5.91,22.43-17.09,23.41-24.65,1.34-10.47-4.06-27.27-17-24.08-3.22.8-10.38,4.6-15.82,7.66,4.58-4.57,5.54-9.56-1.29-10.5-4.93-.69-10.5,6.17-16.62,12.39-2.38-14.05-7.43-22.7-14.77-27.62a31.18,31.18,0,0,0-11.37-4.56c-1.36-.27-2.77-.49-4.22-.64-12.21-1.28-20.77-4.21-23.46-17-4.27-20.32-5.37-46.57-.09-67,6.25-24.19,12.44-44.38,53.91-41.84l.09-.32c6.33,1.61,14.18.1,23.55-6.13a22,22,0,0,0,8.66-11.71l.33.11c21.76-15.51,39-30.73,59.75-47.27,7.15-5.7,13.74-13.47,20.54-19.65.66-.6,1.33-1.28,2-2,5-5.4,10.22-13.57,14.36-14.89,5.14-1.64,3.72,1.49,1.81,4.58,2.7-3.59,6.13-6.37,9.57-7,2.44-.47,2,.94.32,3.38a57.37,57.37,0,0,0-5.18,6.93c2-2.66,3.92-5.09,5.18-6.93,4.32-5,10.11-10.41,13.86-9.91,9.54,1.29-5.29,20.3-7.65,25.23-3.29,6.87,7.35.13,14.16,0,7.27-.1,6.81,6.65-1.34,14.29-10.17,9.53-20,20.44-30.87,30.28-1.64,1.48-3.5,3.21-5.51,5.12-11.32,10.74-27.53,27-36.56,35.57a19.57,19.57,0,0,1,4.34,6.5c6.83,17.35-20,36.52-33.67,43-2.25,1.07-4.59,2.3-7,3.61-12,6.48-26,14.91-39.46,16a52.16,52.16,0,0,0,.61,15.47Z"/><path class="cls-6" d="M586.44,758.18s13.65,8.05,17.09,11.86c-6.67,6.2-32.56,14.15-47.38,17.6-4.82-21.47-13.41-43.38-21.81-63.93a.14.14,0,0,0,0-.06c-3.3-10.36-6.76-18.3-10.12-21.53-9-8.64-21.08-10.75-34.11-10.52-.41-.81-.86-1.59-1.34-2.35C498,684.78,502,675.87,502.23,666c21.15-1.5,35.12,2,42.09,5.62,11.9,6.11,17.67,15.93,22.33,27.73,1,2.62,2,5.33,3,8.12-10.08,3.59-17.6,8.87-16.64,21.4.62,7.92.81,19,9.2,22.16,5.73,2.17,14.28.47,20.07-3.17Z"/><path class="cls-6" d="M566.65,699.34c20.56-2.2,30.13,32.89,19.58,45.18a17.31,17.31,0,0,1-4,3.33c-5.79,3.64-14.34,5.34-20.07,3.17-8.39-3.18-8.58-14.24-9.2-22.16-1-12.53,6.56-17.81,16.64-21.4C568.65,704.67,567.68,702,566.65,699.34Z"/><path class="cls-6" d="M572.48,985.78a1.68,1.68,0,0,1-1.34,2.69H520.42a4.29,4.29,0,0,1-4.28-3.91c-1.28-14.33-5.7-64.16-7-83-1.72-25.28-9.91-84.26-19.1-101.51l0-.48a67.51,67.51,0,0,0,11.44.44c-1.58-3.87-7.61-12-9.33-15.86-.23-9.83,4.13-38,4.14-53.63,0-12.33-.38-27.65-6.26-38.89,13-.23,25.11,1.88,34.11,10.52,3.36,3.23,6.82,11.17,10.12,21.53a.14.14,0,0,1,0,.06c5.89,18.47,11.3,44.58,14.84,65.35,1.06,6.27,2,12.05,2.65,17,5.51,39.4,8.7,63.69,9.85,92.41s3.18,53.62,3.18,77.22Z"/><path d="M556.15,787.64c-2.78.64-5.17,1.13-7,1.42-3.54-20.77-8.95-46.88-14.84-65.35C542.74,744.26,551.33,766.17,556.15,787.64Z"/><path class="cls-6" d="M503.52,993.83a1.68,1.68,0,0,1-1.33,2.65c-17.05.4-44.67.1-55.17,0a4.29,4.29,0,0,1-4.24-4.29c.05-27.19.56-78.2.56-102.89,0-26-2.87-61.77-8.43-95.81l-.08-.14c4.26-2.39,8.48-5,12.66-7.67h0v8.12s26.21,4.22,42.61,5.76l0,.48c4,45.68,2.53,64.43,5.05,109.14s.55,71.78,2.68,76.08A96,96,0,0,0,503.52,993.83Z"/><path class="cls-6" d="M487.3,630.28c9.17,8.54,15.21,22.93,14.93,35.71-.22,9.88-4.22,18.79-13.48,23.26a28,28,0,0,0-4.45-5.49,98.56,98.56,0,0,0-35.95-21.82l.07-.21a52.16,52.16,0,0,1-.61-15.47c13.48-1.13,27.44-9.56,39.46-16Z"/><path class="cls-6" d="M429.85,742.1a56.17,56.17,0,0,0,6.7-6c6.12-6.22,11.69-13.08,16.62-12.39,6.83.94,5.87,5.93,1.29,10.5,5.44-3.06,12.6-6.86,15.82-7.66,12.93-3.19,18.33,13.61,17,24.08-1,7.56-13.64,18.74-23.41,24.65-5.33,3.22-10.8,6.84-16.37,10.38-4.18,2.66-8.4,5.28-12.66,7.67-13.77,7.75-27.85,13.08-41.49,9.53-23.49-6.13-25.33-23.78-23.21-41.7a98.74,98.74,0,0,1,10.49-33.37c4-7.42,15.61-24,29.79-23.87a31.18,31.18,0,0,1,11.37,4.56l0,0c4.43,4.42,4.71,9.94,6.12,15.8a59.17,59.17,0,0,1,1.53,17.12Z"/><path class="cls-6" d="M450.2,510.92c14.28,6.17,24.28,31.39,18.65,48.33A22,22,0,0,1,460.19,571c-9.37,6.23-17.22,7.74-23.55,6.13a19.21,19.21,0,0,1-6.76-3.27C407.36,557,416.67,496.45,450.2,510.92Z"/><path d="M436.55,736.09a56.17,56.17,0,0,1-6.7,6l-.47-.66a59.17,59.17,0,0,0-1.53-17.12c-1.41-5.86-1.69-11.38-6.12-15.8l0,0C429.12,713.39,434.17,722,436.55,736.09Z"/><path class="cls-7" d="M820.51,664c18.18,26.59,36.72,48.18,50.44,78.56,8.07-22.41,13.36-38.69,24.06-55.92,3.37-5.42,6.86-10.66,10.4-15.81,4.94-7.18,10-14.18,15-21.26l.11-.15"/><path class="cls-7" d="M810.87,649.24c.62,1,1.24,2,1.86,3,2.57,4.06,5.17,8,7.77,11.78"/><path class="cls-7" d="M969.6,678.82c-1,2.11-1.94,4.42-2.83,6.86-.73,2-1.42,4.08-2.06,6.22a210.94,210.94,0,0,0-6.16,27.3c-4.3,27.19-4.73,53.67-4.73,81.77,0,48.44-2.35,91.67,6.95,138.14,3.87,19.32,11.08,34.92,25.35,60.5h-155c4.73-6.87,13-18.3,15.67-27.2,4-13.32,5.09-31.73,5-45.61-.15-32.5.49-55,0-87.53-.77-51.57-9.53-87.82-33.34-133.26-7.29-13.91-13.67-24.35-19.76-36.71q-.79-1.62-1.59-3.3c-1.37-2.9-2.73-5.92-4.09-9.13"/><path class="cls-7" d="M892.62,997.91v-71.4"/><path class="cls-7" d="M870.52,849.81c0-19.53-.73-38.57-2.85-41"/><path class="cls-7" d="M928.32,897.41v-35.7"/><path class="cls-7" d="M933.27,716.66c3-14.31,9.22-29.31,18.39-41.27a76.86,76.86,0,0,1,5.34-6.26l.07-.07"/><path class="cls-7" d="M1096.62,674.71c-17.77,1.82-30-.34-46.32,6.42-14.87,6.16-27.41,11.39-43.82,12.24-13.27.69-28.21,1.2-41.77-1.47"/><path class="cls-7" d="M1190.36,476.29A88.84,88.84,0,0,1,1213.84,491c30.75,27,21.71,91.07-1.16,122.87-10.58,14.71-21.94,27.1-35.24,36.6"/><path class="cls-7" d="M1190.36,476.29c-18.79,21.29-47,26.55-42.74,7.41C1151.11,468.1,1170.89,468,1190.36,476.29Z"/><path class="cls-7" d="M758.73,228.67c31.89-3.85,64.68-2.08,84.11,18.12a56,56,0,0,1,11.1,17A77.11,77.11,0,0,1,859,281.87c5.65-16.84,19.73-22,33.77-19.41a44.74,44.74,0,0,1,12,4.07c11.79,5.92,21.62,17,23.58,30.26A138.45,138.45,0,0,1,954.07,263c79.79-76.21,231.32-24.5,266.08,83.75,12.89,40.18-.9,89.37-25.3,123.88a68.81,68.81,0,0,1-4.49,5.68"/><path class="cls-7" d="M551.47,490.44c0-27.68,11-48.92,14.71-56.44-5.12-10.19-8.38-20.54-9-26.77A121.3,121.3,0,0,1,561.13,363c5-18.43,15-33.37,28.67-40,18-8.72,34.77-4.91,50,2.22a113.42,113.42,0,0,1,22.35-42.8"/><path class="cls-7" d="M612.78,619.84c-25.36-12.77-43.2-45-52.6-78.32"/><path class="cls-7" d="M798.65,669.33c-15,2.42-31,3.21-45.85,1.25-24.81-3.28-39.11-11.8-50.32-19.71"/><path class="cls-7" d="M856.29,638.72c-6.39,8-13.46,14.5-18.73,17.57a95.12,95.12,0,0,1-17,7.69h0"/><path class="cls-7" d="M856.29,638.72c-11.6-9.79-23.8-21.25-23.16-37.16.55-13.71,8.56-20.1,20.77-17.41C883.71,590.7,872.07,619.06,856.29,638.72Z"/><path class="cls-7" d="M905.41,670.81c-16.48-8.11-32-17.79-44.71-28.4-1.44-1.21-2.92-2.43-4.41-3.69"/><path class="cls-7" d="M731.75,503.79h0c1-7.76,16.46-17,25.59-13.92"/><path class="cls-7" d="M618.31,491.9a31.84,31.84,0,0,1,15.79-13.1c15.2-5.59,32.61,2.66,33.66,23.94,3.94-13,32.32-25.37,49.93-19.88a19.22,19.22,0,0,1,9.91,6.66c2.61,3.44,4.15,8.11,4.15,14.26"/><path class="cls-7" d="M771.56,282.17c7.94,1.1,13.5,6.34,14.88,16.84"/><path class="cls-7" d="M666.51,341.51a68.22,68.22,0,0,1,10.14-31.13,56.83,56.83,0,0,1,8-10.13c14.73-14.62,34.33-15.57,43,12.67,4-13.93,17-25.91,31.09-29.63a33.2,33.2,0,0,1,12.83-1.13"/><path class="cls-7" d="M838.22,329.61a10.56,10.56,0,0,0-5.1-10.2"/><path class="cls-7" d="M817.82,416.31c20.15-20.31,45.44-15.8,34.39,18.42,8.11-21.39,30.08-9,26.45,6.72"/><path class="cls-7" d="M911.32,401a34.59,34.59,0,0,0-1.7-17"/><path class="cls-7" d="M935.12,412.91a11,11,0,0,1,6.8-5.1"/><path class="cls-7" d="M1005.63,266.3a29.22,29.22,0,0,1,7.42,16.12"/><path class="cls-7" d="M1037.14,282.86c.46-3.33,1.74-6.71,3.4-8.5"/><path class="cls-7" d="M975.92,370.41c10,15.26,21.93,18.42,33.44,14.64a41,41,0,0,0,9.95-5c18.58-12.39,34.27-40.05,36.63-58.83,2,18.32,31.5,25.76,40,9.82a22,22,0,0,0,2.3-11.18c3.64,14.37,20.37,17.22,25.54,9.72"/><path class="cls-7" d="M1171.42,321.11c-2.17,1.82-3.4,6.8-3.4,6.8"/><path class="cls-7" d="M1195.22,372.11a43.84,43.84,0,0,1,11.9,3.4"/><path class="cls-7" d="M1091.52,504.71a68.81,68.81,0,0,1-10.2,6.8"/><path class="cls-7" d="M1101.72,538.71s-.28,9.25,1.7,11.9"/><path class="cls-7" d="M1156.12,555.71a14.83,14.83,0,0,1-8.5-6.8"/><path class="cls-7" d="M1176.52,518.31h8.5"/><path class="cls-7" d="M1049,620.31c6.7,11.87,18.55,16.27,30.88,15.5a49.21,49.21,0,0,0,11.65-2.17c16.67-5.18,31.45-18.68,32.27-34.54,6.47,12,30.5,10.57,43.36,5.13a15.55,15.55,0,0,0,1.73-.87c7.39-4.3,13-15.35,13-27.24"/><path class="cls-7" d="M955.42,518.31c.09.25.18.5.26.75l0,.09c5.13,13.4,29.09,13.69,45.52,5.15,11-5.71,18.64-15.4,14.91-27.77"/><path class="cls-7" d="M872.23,533c0,26.47,25.51,38.1,44.83,36.16A36.09,36.09,0,0,0,923.3,568a33.38,33.38,0,0,0,5.47-2.12c15.82-7.68,33-28.78,26.94-46.76"/><path class="cls-7" d="M695.48,611.54a15.72,15.72,0,0,0,2.61,3.45,23.08,23.08,0,0,0,3.67,2.94,23.77,23.77,0,0,0,14.75,3.52,35.63,35.63,0,0,0,19.71-7.94"/><path class="cls-7" d="M695.48,611.54c6.64-5.46,12.78-15.73,4.79-16.55C691.62,594.11,691.49,604.52,695.48,611.54Z"/><path class="cls-7" d="M596.82,564.21c-.56,17.18,10,24.93,23,26.12C634,591.64,651,585.1,659.42,574.5c-4.46,14.9-1.28,21.64,3.69,29.82,5.56,9.16,17.87,12.94,26.94,10.4a16,16,0,0,0,5.43-3.18"/><path class="cls-7" d="M775.32,565.91a13.9,13.9,0,0,0,0-13.6"/><path class="cls-7" d="M804.22,547.21s5.4-3.65,8.5-3.4"/><path class="cls-7" d="M572.09,399.52c4.82-1.13,9.19,0,11.9,3.4"/><path class="cls-7" d="M630.34,362.71c2.84,7.69,5,15.56,5.1,23.8"/><path class="cls-7" d="M1016.72,662.81v-8.5"/><path class="cls-7" d="M851.82,503h8.5"/><path class="cls-7" d="M676.65,310.38c-8.28-6.63-13.06-16.74-14.52-27.93-3-23.08,8-50.71,31.54-61.69.73-.34,1.47-.67,2.2-1,24.11-10.34,48-5.39,62.86,8.89,12.73,12.23,18.84,31.3,12.83,53.49h0"/><path class="cls-7" d="M684.67,300.25C666,280.3,670.8,239.2,695.87,219.78l0,0"/><path class="cls-7" d="M843,246.68c10.92-24.29,36.47-34.63,60.45-31.46,23.46,3.1,45.4,19.16,50.66,47.76"/><path class="cls-7" d="M853.94,263.81c2.13-25,18.1-47.93,49.44-48.34"/><path class="cls-7" d="M1109.69,395.2c8-21.4,3.33-48.54-13.71-64.13"/><path class="cls-7" d="M1009.34,385a.19.19,0,0,0,0,.07,44.8,44.8,0,0,0,2.2,7.46c10.6,27.11,46.37,42.48,74,29.54,11.77-5.51,19.78-15.34,24.11-26.84"/><path class="cls-7" d="M1019.31,380.08a46.23,46.23,0,0,0,3.29,6.42c13.63,22.4,45.31,33.9,70.35,22.18a45.11,45.11,0,0,0,16.73-13.47h0"/><path class="cls-7" d="M634.1,478.8c-10.44-24.44,2.92-49,14.67-59.92,9-8.34,23.42-14.68,37.84-16.35,11.12-1.3,22.24.19,30.86,5.7,30,19.13,28.67,57,10.13,81.29h0"/><path class="cls-7" d="M686.23,402.48l.38,0a40.09,40.09,0,0,1,16.46,5.7c27.31,17.43,28.65,50.46,14.65,74.53"/><path class="cls-7" d="M619.78,590.33a59.45,59.45,0,0,0-7,29.51c.29,19.6,9.44,38.95,27,46.33a37.21,37.21,0,0,0,4.7,1.64,57.2,57.2,0,0,0,58-16.94h0a56.82,56.82,0,0,0,12-20.73,53.38,53.38,0,0,0,2-8.55"/><path class="cls-7" d="M639.74,666.14c30.44,5.12,53.86-15.95,60.6-41.55a60.86,60.86,0,0,0,1.35-6.55"/><path class="cls-7" d="M999.89,602c21.09-20.64,22.4-57.78,1.34-77.68h0"/><path class="cls-7" d="M917.08,569.41a34.77,34.77,0,0,0,.82,6.71c5.27,23.68,34.61,45.25,59.35,38.65A50.67,50.67,0,0,0,999.87,602"/><path class="cls-7" d="M928.77,565.91a34.93,34.93,0,0,0,1,4.23c6.56,22.75,34.81,42.74,58.75,36.35a52.12,52.12,0,0,0,11.38-4.5h0"/><path class="cls-7" d="M1079.9,635.81a60.92,60.92,0,0,0,.58,6.18,56.44,56.44,0,0,0,16.26,32.59c9.45,9.07,22.7,14.65,39.36,13.72a43.06,43.06,0,0,0,6.75-.9c18.33-3.92,30.59-19.26,34.58-36.95h0a57.66,57.66,0,0,0,1.16-18.26,68.29,68.29,0,0,0-9.69-28.83"/><path class="cls-7" d="M1091.92,634.81q.09,2.22.36,4.44c2.84,24.57,20.6,47.3,50.57,48.13"/><path class="cls-7" d="M804.22,1009.61c.58-8.46-2.33-22.36-3.4-26.2"/><path class="cls-7" d="M814.82,1005a17.79,17.79,0,0,1,1.45-8.54"/><path class="cls-7" d="M1033.72,1013a65.29,65.29,0,0,1,3.7-18.7"/><path class="cls-7" d="M1057.48,1014.08a17.24,17.24,0,0,0-1.91-9"/><path class="cls-7" d="M1064.32,1014.71a36.88,36.88,0,0,1,6.8-18.7"/><path class="cls-7" d="M630.18,960.33c1.3-8.12,21.43-11.84,28.6-13.23a155.59,155.59,0,0,1,63.34.68c18.75,4.07,30.23,9.44,30.23,16.56s-.69,22.39-1.08,29.71c-21.25,4.66-40.89,5.18-63.6,5.18s-43.44-1.14-58.33-5.18C629.71,992.55,629,967.76,630.18,960.33Z"/><path class="cls-7" d="M695.22,441.41a26.74,26.74,0,0,0-10,1c-15.12,4.57-17,22.54-2.9,22.93a26.37,26.37,0,0,0,9.5-1.79"/><path class="cls-7" d="M722.62,249.71a47.47,47.47,0,0,0-9.68,7.55c-4.83,4.91-8.32,11-4.68,16.11s8,5.2,12,3.56a27.67,27.67,0,0,0,9.11-6.82"/><path class="cls-7" d="M913.22,249.91a14.53,14.53,0,0,0-9.53-1.49c-6.88,1.25-12.26,7.22-10.8,13.42"/><path class="cls-7" d="M1067,352.31a25.06,25.06,0,0,0-4.81,2.72c-14.23,10.35-3.22,29.08,11,21.9a22.55,22.55,0,0,0,5.71-4.22"/><path class="cls-7" d="M988.57,568.68a29.11,29.11,0,0,0-7-12.49c-5.52-5.7-12.65-7.7-17.28-3.43S961.69,564,965.39,570a45.21,45.21,0,0,0,6.67,8.29"/><path class="cls-7" d="M1148.62,633a19.39,19.39,0,0,0-7.61-3.76c-12.71-2.87-21.42,12.2-10.37,20.85,2.87,2.24,7.07,4.06,12.88,5"/><path class="cls-7" d="M900.06,231.79c1.7,4.42,2.86,10.69,3.63,16.63,1.17,9.06,1.46,17.39,1.46,17.39"/><path class="cls-7" d="M706.92,245.61a90.56,90.56,0,0,1,6,11.65c2.86,6.59,5.08,13.31,7.37,19.67,1.27,3.53,2.57,6.95,4,10.18"/><path class="cls-7" d="M664,617.11a21.2,21.2,0,0,0-9.91-4.18c-13.67-1.8-23.44,12.77-10.31,19.83a30.81,30.81,0,0,0,10,3"/><path class="cls-7" d="M686.91,434.61c-.54,2.13-1.12,4.8-1.69,7.76a163.4,163.4,0,0,0-2.9,22.93,31.23,31.23,0,0,0,.56,8.41"/><path class="cls-7" d="M1056.6,347a75.76,75.76,0,0,1,5.61,8,184.31,184.31,0,0,1,11,21.9c1.9,4.3,3.7,8.55,5.49,12.56"/><path class="cls-7" d="M991,545.46a83,83,0,0,1-9.48,10.73c-5.09,4.93-10.67,9.41-16.16,13.77-3.52,2.79-7,5.52-10.27,8.29"/><path class="cls-7" d="M1145.4,621.7c-1.27,1.92-2.79,4.56-4.39,7.55-3.61,6.69-7.66,15.1-10.37,20.85-1.88,4-3.11,6.71-3.11,6.71"/><path class="cls-7" d="M657.22,608c-.9,1.26-2,3-3.11,5-3.32,5.73-7.36,13.79-10.31,19.83-2.39,4.88-4.06,8.46-4.06,8.46"/><path class="cls-7" d="M630.18,960.33c15.2,13.58,47.67,11.83,63.84,11.83s51.7-3.23,58.33-7.82"/><line class="cls-7" x1="678.78" y1="956.25" x2="704.58" y2="956.55"/><path class="cls-7" d="M950,656.6c.92,4.4,3.9,9,7,12.53a38.52,38.52,0,0,0,3.12,3.21,36.36,36.36,0,0,0,9.6,6.21,39.45,39.45,0,0,0,18.85,3.4"/><path class="cls-7" d="M950,656.6c2.91-.51,5.12-1.81,5.9-4.32,1.84-6-5.78-5.26-6.17,1A11.94,11.94,0,0,0,950,656.6Z"/><path class="cls-7" d="M901.76,630.8c3,6.81,11.09,14.28,18.64,18.75a38.1,38.1,0,0,0,5.72,2.86c3,1.15,12.1,4.2,19.55,4.44a21.69,21.69,0,0,0,4.35-.25"/><path class="cls-7" d="M827.15,635.42a86.66,86.66,0,0,1-16.31,13.78,58.36,58.36,0,0,1-17.8,7.67c-13.86,3.31-34.7,5.52-38.4-12.26"/><path class="cls-7" d="M640.4,995.36V978.85"/><path class="cls-7" d="M665.68,972.38v12.28"/><path class="cls-7" d="M676,973.14v15.33"/><path class="cls-7" d="M723.74,997.65c.14-1.59.15-19.15.15-19.15"/><path class="cls-7" d="M742.74,983.87V969.31"/><path class="cls-7" d="M534.32,723.65c-3.3-10.36-6.76-18.3-10.12-21.53-9-8.64-21.08-10.75-34.11-10.52"/><path class="cls-7" d="M434.91,793.46c5.56,34,8.43,69.77,8.43,95.81,0,24.69-.51,75.7-.56,102.89a4.29,4.29,0,0,0,4.24,4.29c10.5.13,38.12.43,55.17,0a1.68,1.68,0,0,0,1.33-2.65,96,96,0,0,1-5.73-8.59c-2.13-4.3-.16-31.37-2.68-76.08s-1-63.46-5.05-109.14c9.19,17.25,17.38,76.23,19.1,101.51,1.28,18.87,5.7,68.7,7,83a4.29,4.29,0,0,0,4.28,3.91h50.72a1.68,1.68,0,0,0,1.34-2.69l-7.62-10.1c0-23.6-2-48.49-3.18-77.22s-4.34-53-9.85-92.41c-.69-4.94-1.59-10.72-2.65-17-3.54-20.77-8.95-46.88-14.84-65.35"/><path class="cls-7" d="M421.89,657.52a82.35,82.35,0,0,1,26.46,4.42,98.56,98.56,0,0,1,35.95,21.82,28,28,0,0,1,4.45,5.49c.48.76.93,1.54,1.34,2.35,5.88,11.24,6.26,26.56,6.26,38.89,0,15.6-4.37,43.8-4.14,53.63,1.72,3.89,7.75,12,9.33,15.86a67.51,67.51,0,0,1-11.44-.44c-16.4-1.54-42.61-5.76-42.61-5.76"/><path class="cls-7" d="M436.55,736.09c-2.38-14.05-7.43-22.7-14.77-27.62a31.18,31.18,0,0,0-11.37-4.56c-1.36-.27-2.77-.49-4.22-.64-12.21-1.28-20.77-4.21-23.46-17-4.27-20.32-5.37-46.57-.09-67,6.25-24.19,12.44-44.38,53.91-41.84"/><path class="cls-7" d="M410.41,703.91c-14.18-.1-25.82,16.45-29.79,23.87a98.74,98.74,0,0,0-10.49,33.37c-2.12,17.92-.28,35.57,23.21,41.7,13.64,3.55,27.72-1.78,41.49-9.53,4.26-2.39,8.48-5,12.66-7.67,5.57-3.54,11-7.16,16.37-10.38,9.77-5.91,22.43-17.09,23.41-24.65,1.34-10.47-4.06-27.27-17-24.08-3.22.8-10.38,4.6-15.82,7.66-3.94,2.2-7,4-7,4"/><path class="cls-7" d="M482.37,731.87c-4.16,5.29-13,8.25-18.51,12"/><path class="cls-7" d="M486.29,742.77c-4.05,5.37-10.52,8.77-15.63,11.57"/><path class="cls-7" d="M454.46,734.2c4.58-4.57,5.54-9.56-1.29-10.5-4.93-.69-10.5,6.17-16.62,12.39a56.17,56.17,0,0,1-6.7,6l-.63.45c-8,5.54-19.49,12.88-25.84,15.63"/><path class="cls-7" d="M488.75,689.25C498,684.78,502,675.87,502.23,666c.28-12.78-5.76-27.17-14.93-35.71"/><path class="cls-7" d="M447.81,646.26a52.16,52.16,0,0,0,.61,15.47"/><path class="cls-7" d="M566.65,699.34c20.56-2.2,30.13,32.89,19.58,45.18a17.31,17.31,0,0,1-4,3.33c-5.79,3.64-14.34,5.34-20.07,3.17-8.39-3.18-8.58-14.24-9.2-22.16-1-12.53,6.56-17.81,16.64-21.4-1-2.79-2-5.5-3-8.12-4.66-11.8-10.43-21.62-22.33-27.73-7-3.57-20.94-7.12-42.09-5.62"/><path class="cls-7" d="M553.77,729.63c9.71,0,16.44-2.5,24.18-9.5"/><path class="cls-7" d="M556.15,742.36c9.37,1,18-3.07,24.65-8.76"/><path class="cls-7" d="M582.26,747.85l4.18,10.33s13.65,8.05,17.09,11.86c-6.67,6.2-32.56,14.15-47.38,17.6-2.78.64-5.17,1.13-7,1.42"/><line class="cls-7" x1="472.66" y1="651.22" x2="471.15" y2="647.26"/><line class="cls-7" x1="483.78" y1="646.81" x2="482.26" y2="642.85"/><path class="cls-7" d="M395.08,615.82c9.29,11.63,24.67,22.26,37.77,28.1a29.87,29.87,0,0,0,15,2.34c13.48-1.13,27.44-9.56,39.46-16,2.43-1.31,4.77-2.54,7-3.61,13.63-6.5,40.5-25.67,33.67-43a19.57,19.57,0,0,0-4.34-6.5,27.73,27.73,0,0,0-2.42-2.22c-.43-.36-.89-.72-1.36-1.07-7.88-5.86-19.2,1.73-25.17,7,.45-5.16-1.91-12.51-6.78-10s-5.42,10.93-5.43,15.73c-9.35,6.32-23.67,14.4-33,14.72-6.32.22-18.22-6.32-21-11.08"/><path class="cls-7" d="M506.91,586.76c5.08-2.77,11.34-8.58,14.29-11.89"/><path class="cls-7" d="M514.06,594c5-2.37,11-7.6,13.9-10.41"/><path class="cls-7" d="M436.64,577.09a19.21,19.21,0,0,1-6.76-3.27c-22.52-16.8-13.21-77.37,20.32-62.9,14.28,6.17,24.28,31.39,18.65,48.33A22,22,0,0,1,460.19,571C450.82,577.19,443,578.7,436.64,577.09Z"/><line class="cls-7" x1="459.17" y1="534.96" x2="457.02" y2="529.72"/><line class="cls-7" x1="448.57" y1="537.57" x2="446.42" y2="532.34"/><path class="cls-7" d="M444.73,546.05c6.53,6.89,15.15,3.89,19.71-1.88"/><path class="cls-7" d="M577.53,476.48c4.32-5,10.11-10.41,13.86-9.91,9.54,1.29-5.29,20.3-7.65,25.23-3.29,6.87,7.35.13,14.16,0,7.27-.1,6.81,6.65-1.34,14.29-10.17,9.53-20,20.44-30.87,30.28-1.64,1.48-3.5,3.21-5.51,5.12-11.32,10.74-27.53,27-36.56,35.57"/><path class="cls-7" d="M577.53,476.48c-1.26,1.84-3.22,4.27-5.18,6.93A57.37,57.37,0,0,1,577.53,476.48Z"/><path class="cls-7" d="M567.64,480.13c2.7-3.59,6.13-6.37,9.57-7,2.44-.47,2,.94.32,3.38"/><path class="cls-7" d="M565.19,484c.08-.15.16-.3.25-.45a27.49,27.49,0,0,1,2.15-3.37"/><path class="cls-7" d="M567.59,480.21c-.78,1.25-1.63,2.48-2.15,3.37"/><path class="cls-7" d="M567.59,480.21a.35.35,0,0,0,0-.08"/><path class="cls-7" d="M469.18,559.36c21.76-15.51,39-30.73,59.75-47.27,7.15-5.7,13.74-13.47,20.54-19.65.66-.6,1.33-1.28,2-2,5-5.4,10.22-13.57,14.36-14.89,5.14-1.64,3.72,1.49,1.81,4.58"/><path class="cls-7" d="M476.15,661.91c3.47,3.25,8.53.18,11.74-1.79"/><line class="cls-7" x1="447.49" y1="791.99" x2="447.49" y2="785.66"/><path class="cls-7" d="M421.72,708.51h0c4.43,4.42,4.71,9.94,6.12,15.8a59.17,59.17,0,0,1,1.53,17.12"/><path class="cls-7" d="M534.32,723.65a.14.14,0,0,1,0,.06c8.4,20.55,17,42.46,21.81,63.93v0"/><line class="cls-7" x1="798.09" y1="665.54" x2="812.72" y2="652.2"/><path class="cls-7" d="M945.64,657.57c1,5.73,2.81,12.35,6,17.82.14.25.3.5.45.75,2.7,4.34,9.21,8.39,14.21,9.39"/><line class="cls-7" x1="1080.48" y1="641.99" x2="1092.28" y2="639.25"/><line class="cls-7" x1="917.91" y1="576.12" x2="929.74" y2="570.14"/><line class="cls-7" x1="1022.59" y1="386.51" x2="1011.56" y2="392.51"/><polyline class="cls-7" points="700.33 624.59 700.34 624.59 714.53 630.14"/><path class="cls-7" d="M520.61,1024.7c-1.47-6.28-1.45-14.45-3.82-19.92"/><path class="cls-7" d="M636.68,1035.59c.63-4.5,2.85-10.9,6.13-13.79"/><path class="cls-7" d="M530.57,1017a13,13,0,0,1,3.83-8.43"/><path class="cls-7" d="M628.82,1037.49a190.19,190.19,0,0,0,.93-23.21"/><path class="cls-7" d="M744.27,1045.16c-.47-6.57-1-13-3.06-19.14"/></g></svg>