<?xml version="1.0" encoding="utf-8"?>
<!-- Generator: Adobe Illustrator 27.0.0, SVG Export Plug-In . SVG Version: 6.00 Build 0)  -->
<svg version="1.1" id="Layer_1" xmlns="http://www.w3.org/2000/svg" xmlns:xlink="http://www.w3.org/1999/xlink" x="0px" y="0px"
	 viewBox="0 0 1141.3 705" style="enable-background:new 0 0 1141.3 705;" xml:space="preserve">
<style type="text/css">
	.st0{fill:#C0E3E9;stroke:#000000;stroke-width:3;stroke-linecap:round;stroke-linejoin:round;}
	.st1{fill:#D3C9D7;}
	.st2{fill:#E7B45B;}
	.st3{fill:#ECEBE6;}
	.st4{fill:#F6D4E5;}
	.st5{fill:#EEABC9;}
	.st6{fill:#01C67A;}
	.st7{fill:#D794B6;}
	.st8{fill:#BF8C4B;}
	.st9{fill:none;stroke:#000000;stroke-width:3;stroke-linecap:round;stroke-linejoin:round;}
</style>
<g id="saving">
	<path class="st0" d="M900.3,174.4c-9.3-66.7-73.1-172.9-207.5-142.1C657.2-6,573.9-4.7,523.1,15c-51.5,20-83.4,74.1-107.5,121.2
		c-4.4,8.5-7.8,17.5-10.2,26.8c-14.8-2.2-30-0.6-44.1,4.6c-6.6,2.4-13,5.5-19,9.1c-39.6-67.1-151.8-79.4-212.1-32.6
		c-37,28.7-51.5,68.2-49.5,113.7c1,20.9,6.5,36.9,14.5,52c-4.1,4.4-8.1,9.2-12.1,14.2c-45.5,59-80.3,178.8-29.6,245.2
		c2,2.6,4,5.1,6.2,7.6C31.7,592.6,8.1,624.8,3,655.7c-0.8,4.9-1.3,9.8-1.5,14.7h1097c-0.8-44-32.3-91-64.3-113.5
		c-10.2-7.1-22.7-10.6-36.1-11.8c6-14.5,10.3-30.4,10.7-45.8c35.6-9.1,71.6-29.8,91.6-51.5c52-56.4,50.2-175.1,8.2-227
		C1061.6,162.8,973.9,140.9,900.3,174.4z"/>
	<path class="st1" d="M1025.3,277.4c3.7,5.6,6.9,13.1,9.3,21.3c2.3,7.6-2.3,22.3-5.4,30.1c-4.8,11.8-19.5,38.7-26.7,49.6
		c-17.3,26-26.3,44.5-37.8,73.7c-5.3,13.6-9.6,35.2-10.5,49.9c-3.1,50.9-3.1,103.4-3.1,154.3c0,16.4,0.8,30.7-0.1,47
		c-9.4,0.5-66.8,0-66.8,0s7.4-7.5,7.6-15c0.4-16.7,0.9-130.4,1.3-154.3c0.2-9.7-1-35-1-35l-16.6-1.4c0,0-2.8,33.6-3.1,51.7
		c-0.5,25.5-3,89.1-3,114.6c0,8.6-0.2,39.3-0.2,39.3h-72c0,0,8.9-13.5,9.3-18c0.5-7,0.8-17.5,0.8-24.4c0-34.1,2.3-68.2,2.6-102.2
		c0.8-75.8,20.2-208.7,53.6-283.3c0.9,4.1,2.1,8.1,3.5,12l0,0c3.9,18.4,11.5,35.8,22.4,51.1l0,0c-5,17-9,45.7-10.8,60.2
		c-0.7,5.2,2.4,10.2,7.3,12l24,8.6c4.4,1.6,9.3-0.1,11.8-4c1.4-2.2,3.1-4.8,5-7.7c7.4-11.4,17.4-27,24.9-38.6
		c3.8-5.8,6.9-10.7,8.7-13.5c6-9.2,25.5-38,36.4-52.3c1.9-2.5,3.5-4.5,4.8-5.9c5.5-6.3,10.5-21.6,7.3-29.6
		C1015.1,266.3,1020.6,270.4,1025.3,277.4z"/>
	<path class="st2" d="M1009,267.3c3.2,8-1.8,23.4-7.3,29.6c-1.2,1.4-2.9,3.5-4.8,5.9l0,0c-3.1-14-8.5-27.4-15.9-39.7l6.1-1.8
		c0,0,7-6.4,10.4-9l1-0.8c0.4,0.5,0.8,1.1,1.2,1.6C1003.1,257.6,1006.2,262.4,1009,267.3z"/>
	<path class="st2" d="M998.5,251.5l-1,0.8c-3.4,2.6-10.4,9-10.4,9l-6.1,1.8c-15.5-25.5-40-44.7-71.5-49.5l0.1-0.7
		c0,0,6.6-7.1,9.5-9.2v-1.2c29.3,0.6,51.2,16.6,70.3,38C992.6,244,995.7,247.7,998.5,251.5z"/>
	<path class="st2" d="M922.2,278.3c-6.2,2.7-10.3,8.3-5.8,15.8c4,6.5,12.2,11.1,22.3,10.3c-1.1-1.7-2.2-3.3-3-4.5
		C932.2,294.5,926.8,285.8,922.2,278.3z M996.9,302.8L996.9,302.8c-10.9,14.3-30.4,43.1-36.4,52.3c-1.8,2.8-5,7.7-8.7,13.5
		c-0.5-6.7-2.8-13.2-6.7-18.8c-8.5-12.4-25.6-13.8-36.9-4.8c-5.6-4.7-10.8-9.9-15.6-15.4l0,0c-11.1-12.5-19.7-26.9-25.5-42.6l0,0
		c-1.4-3.9-2.6-7.9-3.5-12l0,0c-2.2-9.1-2.9-18.6-2.2-27.9c0.8-10,4.1-18.3,9.1-24.9l0,0c5.6-6.5,19.8-10.7,34.5-9.1
		c1.5,0.2,2.9,0.3,4.3,0.6c31.5,4.7,56,24,71.5,49.5C988.4,275.4,993.8,288.8,996.9,302.8L996.9,302.8z"/>
	<path class="st1" d="M908.2,345c11.2-9,28.3-7.6,36.9,4.8c3.9,5.5,6.2,12,6.7,18.8c-7.5,11.6-17.5,27.2-24.9,38.6
		c-8.6,4.1-21.1,2.1-26.6-5s-6.6-15-6.2-24c0.4-9.3,3.2-18.4,8-26.3C903.7,349.3,905.8,347,908.2,345z"/>
	<path class="st2" d="M938.8,304.4c-10.1,0.8-18.4-3.8-22.3-10.3c-4.5-7.5-0.4-13.1,5.8-15.8c4.6,7.5,9.9,16.2,13.6,21.6
		C936.6,301.1,937.6,302.7,938.8,304.4z"/>
	<path class="st3" d="M884.7,78.4c2.5-0.1,4.9-0.3,7.3-0.7c5.4-1,11.1-4.8,4.4-9c-1-0.7-6-0.8-11.6-1.1c0.1-3.8,0.3-7.7,0.6-11.5
		c-2.9-0.2-5.8-0.2-8.7-0.1c-5.6,0.3-10.6,1.5-11.6,4.1c-1.5,4,4,5.7,10.8,6.7c-0.2,3.9-0.4,7.7-0.2,11.4
		C878.8,78.5,881.8,78.6,884.7,78.4z M748.5,58.6c-1.8,1.7-3.4,3.5-4.9,5.4c-9,11.7-10.6,26.8-1.7,26.6
		C748.1,90.5,751.7,70.5,748.5,58.6z M777.8,52.9c-3.9,1.9-7.4,4.7-10,8.2c-8.3,10.6-10.2,27.3-2.5,27.3s13.3-3.4,17.4-16.3
		C785.2,65.3,783.2,57.7,777.8,52.9L777.8,52.9z M804.3,53c-10,6-20.1,29.4-10.8,32.6c9.6,3.4,15.7-9.5,16.9-18.4
		C811.2,62,808.4,56.5,804.3,53z M830,53.7c-1,0.5-2,1.1-2.8,1.9c-3.9,4-9.4,14.6-8.1,23c0.5,3.2,6.4,5.4,11,1.1
		C835.6,74.8,835.9,60.7,830,53.7L830,53.7z M930.1,32.8v69.6c0,6.1-4.9,11-11,11H698.6c-6.2,6.6-27.8,33.8-33.3,39
		c0,0-2.5-26-3.3-39h-14.9c-6.1,0-11.1-4.9-11.1-11V32.8c0-6.1,5-11.1,11.1-11.1h272C925.2,21.7,930.1,26.7,930.1,32.8z M688,61.6
		c3.2-0.7,7-0.5,9.7-1.4c-2.8-6.8-18.1-21.9-18.1-21.9c-5.8,7.2-11.1,14.8-15.9,22.6c2.8,0,5.6-0.4,8.4-0.4c0,0-0.5,25.9-0.5,36
		c0.4,0.4,10.2-0.5,17.5-0.5C689,90.3,688,61.6,688,61.6z"/>
	<path class="st2" d="M919.1,202.4v1.2c-2.9,2.2-9.5,9.2-9.5,9.2l-0.1,0.7c-1.4-0.2-2.9-0.4-4.3-0.6c-14.7-1.5-28.9,2.6-34.5,9.1
		c9.6-12.6,25.7-19.1,43.6-19.8C915.9,202.4,917.5,202.4,919.1,202.4z"/>
	<path class="st3" d="M896.5,68.8c6.7,4.2,1,8-4.4,9c-2.4,0.4-4.9,0.6-7.3,0.7c0-3.6,0.1-7.2,0.2-10.8
		C890.5,68,895.5,68.1,896.5,68.8z"/>
	<path d="M892.6,329.7L892.6,329.7c-1.2,2.8-2.3,5.6-3.1,8.5l0,0c-10.8-15.4-18.4-32.7-22.4-51.1
		C872.9,302.7,881.6,317.2,892.6,329.7z"/>
	<path class="st3" d="M885.4,56.2c-0.3,3.8-0.5,7.6-0.6,11.5c-2.9-0.2-6-0.4-8.8-0.8c0.2-3.6,0.5-7.2,0.7-10.8
		C879.6,55.9,882.6,56,885.4,56.2z"/>
	<path class="st3" d="M884.9,67.6c-0.1,3.6-0.2,7.2-0.2,10.8c-2.9,0.1-5.9,0-8.9-0.1c-0.1-3.7,0-7.6,0.2-11.4
		C878.9,67.2,882,67.5,884.9,67.6z"/>
	<path class="st3" d="M876.8,56.1c-0.2,3.5-0.5,7.2-0.7,10.8c-6.8-0.9-12.3-2.7-10.8-6.7C866.2,57.5,871.1,56.4,876.8,56.1z"/>
	<path class="st3" d="M830,53.7c5.9,7,5.6,21.1,0.2,26.1c-4.7,4.3-10.5,2-11-1.1c-1.4-8.4,4.2-19,8.1-23
		C828.1,54.8,829,54.1,830,53.7z"/>
	<path class="st3" d="M804.3,53c4.1,3.5,6.8,9,6.1,14.3c-1.2,8.9-7.3,21.8-16.9,18.4C784.2,82.4,794.4,59.1,804.3,53z"/>
	<path class="st3" d="M777.8,52.9c5.4,4.8,7.3,12.4,4.9,19.3c-4.2,12.9-9.7,16.3-17.4,16.3s-5.8-16.7,2.6-27.3
		C770.5,57.6,773.9,54.8,777.8,52.9z"/>
	<path class="st4" d="M771.8,465.3c11.7,31.5,10.8,78.1-28.6,85c-24.5,0.6-32.3-33.3-32.3-58s5.5-48,27.7-56.2V436
		C757.5,439.1,764.9,446.7,771.8,465.3z"/>
	<path class="st3" d="M748.5,58.6c3.2,11.9-0.4,31.9-6.6,32.1c-8.9,0.2-7.3-14.9,1.7-26.6C745.1,62,746.8,60.2,748.5,58.6z"/>
	<path class="st5" d="M616.2,342.8c21.3,2.1,35.2,6.3,43.8,12.8c13.3,9.9,25.6,24.5,30.8,42.7c3.6,12.5,6.4,25.2,8.6,38.1
		c8-0.5,31.8-1.5,38.3-0.5l0.9,0.2v0.1c-22.2,8.2-27.7,31.5-27.7,56.2s7.8,58.6,32.3,58c-6.9,1.2-21.8,1.6-37.3,1.8
		c-1.4,9.8-3.7,18.6-7,25.7c-9.3,19.4-24.4,35.3-43.3,45.5c-11,6-22.9,10.4-35.2,12.8c-4.2,0.9-8.5,1.5-12.9,2
		c4.5,12.8,9,19.9,13,32.9c5.9,18.8,7.6,32.5-5.9,32.5s-18.6-10-36.2-42.7c-2.9-5.5-7.5-13.9-11.5-21.3c-33.2,0.8-82.9,2.1-98.2,2.2
		c-23.9,0.1-47.7-1.2-71.4-3.7c-11.8-1.2-23.6-2.7-35.5-4.4c-3.3-0.5-6.6-1-9.9-1.5l-0.9-0.3c-4.1,11.2-10,24.6-13.7,33.8
		c-4.2,10.6-7.2,22.9-15.4,31.2c-5.8,5.9-12.9,8.9-19.5,2.5c-9.6-9.3-1.5-27.5,0.6-38.8c2-10.4,6.1-27.2,9.3-39.9
		c-9.8-4.9-18.7-11.3-26.6-19c-12-11.5-17.8-28.5-23-44.4c3.3-41.4,4.2-105.5,7.5-128.5c0,0,29.7-12.6,45.5-20.6
		c22.3-11.2,44.9-23,65.6-35.4c3.9-2.5,7.5-5.4,10.8-8.6c0,0,9.2,0.2,23,0.5l0,0c16.8,0.4,40.6,0.8,62.8,1.1c25.5,0.3,49,0.5,58,0
		l-0.3-10.2c-14.9-0.7-41.4-1-41.4-1l0,0c4.7-4.1,8.9-8.8,12.6-13.8l0.7,0.5h54.1c2.7-16.1,10.2-32.5,21.7-44.1
		c6.1-6.2,10-6.3,15.4,1.1c7.8,10.8,11.5,23.2,15,35.9C614.8,336.9,615.6,340.1,616.2,342.8z"/>
	<path class="st6" d="M697.6,60.3c-2.7,0.9-6.5,0.7-9.7,1.4c0,0,1,28.7,1,34.5c-7.2,0-17.1,0.8-17.5,0.5c0-10.1,0.5-36,0.5-36
		c-2.8,0-5.6,0.4-8.4,0.4c4.9-7.8,10.2-15.4,16-22.5C679.5,38.4,694.9,53.5,697.6,60.3z"/>
	<path class="st7" d="M673.1,669.6c5.8,18.8,7.6,29.2-5.9,29.2s-18.6-10-36.1-42.7l-6.5-12.1c11.6-3.8,22.6-9.4,32.6-16.5l0,0
		C662.6,642.4,668.2,653.8,673.1,669.6z"/>
	<path class="st7" d="M671.3,297.4c3,16-1.8,35.5-10,57.9l-1.3,0.3c-8.6-6.5-22.5-10.7-43.8-12.8c-0.6-2.8-1.4-5.9-2.2-8.8
		c6.3-10.7,17.1-21.5,30.8-32.7C650.6,296.6,668.7,283.8,671.3,297.4z"/>
	<path d="M657.2,627.4L657.2,627.4c-10,7.1-21,12.7-32.6,16.6l-4.2-7.9c12.3-2.5,24.2-6.8,35.2-12.8l0.4,0.8
		C656.4,625.2,656.8,626.3,657.2,627.4z"/>
	<path d="M535.8,355.4l0.3,10.2c-8.9,0.5-32.5,0.3-58,0c5.9-3.1,11.3-6.9,16.3-11.2l0,0C494.4,354.4,520.9,354.7,535.8,355.4z"/>
	<path class="st2" d="M445.6,275.2c-9.3,2.8-17.9,8.2-16,18.5c1.6,8.7,13.4,9.6,24.3,8.3c-2-7.2-4.5-14.1-6.6-21.5
		C447,279.2,446.3,277.3,445.6,275.2z M522.7,291.9c0,31-17.2,59.4-44.7,73.8c-22.2-0.3-45.9-0.8-62.8-1.1l0,0
		c-3-1-10.1-6.2-13.9-10.5l-0.3-0.2c0.5-0.7,1-1.4,1.5-2.2c6.5-10.2,6.9-23.2,0.4-34.9c-1.7-3.1-3.6-6-5.9-8.7
		c-3-3.6-6.7-6.5-10.2-6.1c-5,0.6-6.6,6.2-9.1,9.7c-0.5,0.7-1,1.3-1.6,1.9c-1.1-2.8-2-5.6-2.8-8.4c-0.6-2-1.1-4-1.5-6
		c-2.3-10.3-2.6-21-0.8-31.4c2.6-15.5,10.1-29.7,21.2-40.7c4.5-4.5,9.4-8.4,14.8-11.8l-0.1-0.2c42.4-17.9,91.3,2,109.2,44.4
		C520.5,269.8,522.7,280.8,522.7,291.9L522.7,291.9z"/>
	<path class="st2" d="M447.4,280.6c2.2,7.3,4.6,14.3,6.6,21.5c-11,1.3-22.7,0.4-24.3-8.3c-1.9-10.3,6.6-15.7,16-18.5
		C446.3,277.3,447,279.2,447.4,280.6z"/>
	<path class="st8" d="M401.4,354c3.8,4.3,10.9,9.6,13.9,10.5c-13.8-0.3-23-0.5-23-0.5c3.2-3.1,6.2-6.6,8.8-10.2L401.4,354z"/>
	<path class="st8" d="M407.1,215.2l0.1,0.2c-5.3,3.4-10.3,7.3-14.8,11.8c-11.2,11-18.6,25.2-21.2,40.7l-0.5-0.1l-11.7,4.8l-0.4-0.1
		C364.7,246.7,382.7,225.5,407.1,215.2z"/>
	<path class="st1" d="M263,557.1c-0.4,4.5-0.8,8.7-1.2,12.6c-3.6,32.9-12.1,88.3-14.9,104.9c-0.6,3.4,0.1,7,1.8,10l5.3,9.2
		c1.5,2.1,0.9,5.1-1.2,6.5c-0.8,0.5-1.7,0.8-2.7,0.8h-20.6c-4.9,0-9.5-2.1-12.8-5.7c-5-5.5-12.2-14.2-15.8-22
		c-1.5-3.3-3.8-6.6-5.6-10l-2,12.2c-0.4,2.6,0,5.2,1.2,7.5l5.3,10c1.1,1.8,0.5,4.1-1.3,5.2c-0.6,0.4-1.3,0.5-2,0.5h-23.3
		c-4.2-0.1-8.1-2.1-10.7-5.3c-3.7-4.6-7.7-9-12-13.1c-8.3-7.8-8.4-13.6-7.6-25.1c0.8-11.1,10.2-84.5,12.5-113.8s3.9-102.1,11-122.8
		c8.2-23.9,20.1-43.3,43.1-52.7l0.4-0.7c4.2,2.4,8.9,3.6,13.7,3.5l0.4,6c11.6-3.4,49.7-14.9,64.5-21c11.9-4.9,35.4-15.2,46.7-21.4
		c9.8-5.3,13.9-28.7,21.8-29.2c0.6,2.8,1.3,5.5,2.1,8.2c1.8,5.7,3.8,10.5,3.8,10.5c4.4-1.9,9.8-4.9,13.3-8.7
		c0.6-0.6,1.1-1.2,1.6-1.9c2.4-3.5,4.1-9.1,9.1-9.7c3.6-0.4,7.2,2.5,10.2,6.1c2.2,2.7,4.2,5.6,5.9,8.7c6.5,11.7,6,24.7-0.4,34.9
		c-0.5,0.7-0.9,1.5-1.5,2.2c-2.6,3.7-5.5,7.1-8.8,10.2c-3.2,3.3-6.8,6.2-10.7,8.7C361,385,338.3,396.8,316.1,408
		c-15.7,7.9-45.5,20.6-45.5,20.6C267.3,451.6,266.4,515.7,263,557.1z"/>
	<path d="M397.4,638v0.2c-0.5,1.2-0.9,2.3-1.4,3.4c-12,0.4-24,0.6-36.2,0.5l-0.2-0.1c0.8-2.8,1.5-5.6,2.4-8.5
		C373.7,635.3,385.5,636.7,397.4,638z"/>
	<path class="st7" d="M396,641.6c-3.6,8.4-7.4,16.1-10.1,22.4c-4.4,10.2-7.8,22.3-15.5,30c-5.5,5.5-12,8.1-17.5,1.5
		c-8-9.7,0.3-27.2,2.9-38.3c1-4.2,2.4-9.5,3.9-15.2l0.2,0.1C371.9,642.2,383.9,642,396,641.6z"/>
	<path class="st8" d="M373.5,305.2c0.8,2.8,1.7,5.6,2.8,8.4c-3.5,3.7-8.9,6.7-13.3,8.7c0,0-2-4.8-3.8-10.5l0.4-0.1l13.7-6.3
		L373.5,305.2z"/>
	<path class="st8" d="M373.5,305.2l-0.3,0.1l-13.7,6.3l-0.4,0.1c-0.9-2.7-1.6-5.4-2.1-8.2l5.8-0.3l9.2-4
		C372.4,301.2,372.9,303.2,373.5,305.2z"/>
	<path class="st8" d="M372,299.2l-9.2,4l-5.8,0.3c-0.4-2.8-0.7-5.7-0.8-8.6c0-1,0-2,0-3c0-6.6,0.7-13.1,2.3-19.5l0.4,0.1l11.7-4.8
		l0.5,0.1C369.4,278.2,369.7,288.9,372,299.2z"/>
	<path class="st1" d="M356.3,294.9c0.1,2.9,0.3,5.7,0.8,8.6c-7.9,0.5-12,23.8-21.8,29.2c-11.3,6.2-34.8,16.5-46.7,21.4
		c-14.7,6.1-52.9,17.5-64.5,21l-0.4-6c3.9-0.2,7.6-1.5,10.8-3.7c0.3-0.2,0.7-0.5,1-0.7c4.3-3.2,7.7-7.6,9.6-12.6
		c9.2-3.9,18.6-8.1,27.1-12.1C292.1,330.5,334.9,304.3,356.3,294.9z"/>
	<path class="st1" d="M203.6,294.4c26-10.4,51.7,31.1,41.5,57.4c-1.9,5-5.3,9.4-9.6,12.6c-0.3,0.3-0.7,0.5-1,0.7
		c-3.2,2.2-6.9,3.5-10.8,3.7c-4.8,0.1-9.6-1.2-13.8-3.6c-1.7-0.9-3.4-2-5-3.2C184.8,347.8,179,304.3,203.6,294.4z"/>
	<path class="st9" d="M381.6,331.4c5.2-4.9,14.3-11.7,15.5-23.3"/>
	<path class="st9" d="M392.3,342.1c0,0,10.2-9.2,12.2-22.3"/>
	<path class="st9" d="M468,299.1c-4.6,1.3-9.3,2.3-14,2.9c-11,1.3-22.7,0.4-24.3-8.3c-1.9-10.3,6.6-15.7,16-18.5
		c4.4-1.3,8.9-2.1,13.4-2.6"/>
	<path class="st9" d="M457.1,315.4c-0.8-4.5-1.9-9-3.1-13.4c-2-7.2-4.5-14.1-6.6-21.5c-0.4-1.3-1-3.2-1.7-5.4
		c-2.2-6.7-5.3-15.5-5.3-15.5"/>
	<path class="st9" d="M208.1,477.6c-0.8,15.9-1.5,54-4.3,93.9c-2.8,38.2-11.1,78.7-11.2,82.8c0.1,3.2,1.1,6.4,2.7,9.2
		c1.8,3.4,4.1,6.7,5.6,10c3.7,7.8,10.8,16.5,15.8,22c3.3,3.6,7.9,5.7,12.8,5.7h20.6c2.6,0,4.7-2.1,4.7-4.7c0-0.9-0.3-1.9-0.8-2.7
		l-5.3-9.2c-1.7-3-2.4-6.6-1.8-10c2.8-16.6,11.3-72,14.9-104.9c0.4-3.9,0.8-8.1,1.2-12.6c3.3-41.4,4.2-105.5,7.5-128.5
		c0,0,29.7-12.6,45.5-20.6c22.3-11.2,44.9-23,65.6-35.4c3.9-2.5,7.5-5.4,10.8-8.6c3.2-3.1,6.2-6.6,8.8-10.2c0.5-0.7,1-1.4,1.5-2.2
		c6.5-10.2,6.9-23.2,0.4-34.9c-1.7-3.1-3.6-6-5.9-8.7c-3-3.6-6.7-6.5-10.2-6.1c-5,0.6-6.6,6.2-9.1,9.7c-0.5,0.7-1,1.3-1.6,1.9
		c-3.5,3.7-8.9,6.7-13.3,8.7c0,0-2-4.8-3.8-10.5c-0.9-2.7-1.6-5.4-2.1-8.2c-7.9,0.5-12,23.8-21.8,29.2
		c-11.3,6.2-34.8,16.5-46.7,21.4c-14.7,6.1-52.9,17.5-64.5,21l-3.4,1"/>
	<path class="st9" d="M209.5,366c-23,9.3-34.9,28.8-43.1,52.7c-7.2,20.8-8.7,93.5-11,122.8s-11.8,102.7-12.5,113.8
		c-0.9,11.5-0.8,17.3,7.6,25.1c4.3,4.1,8.3,8.5,12,13.1c2.6,3.2,6.5,5.2,10.7,5.3h23.3c2.1,0,3.8-1.7,3.8-3.7c0-0.7-0.2-1.4-0.5-2
		l-5.3-10c-1.2-2.3-1.6-4.9-1.2-7.5l2.1-12.2"/>
	<path class="st9" d="M356.3,294.9c-21.4,9.4-64.2,35.6-84,44.9c-8.6,4-17.9,8.1-27.1,12.1"/>
	<path class="st9" d="M223.6,368.9c3.9-0.2,7.6-1.5,10.8-3.7c0.3-0.2,0.7-0.5,1-0.7c4.3-3.2,7.7-7.6,9.6-12.6
		c10.3-26.4-15.3-67.8-41.4-57.4c-24.6,9.8-18.9,53.4,1.2,67.8c1.6,1.2,3.3,2.2,5,3.2C214,367.8,218.8,369,223.6,368.9z"/>
	<path class="st9" d="M219.2,338.5c7.1,5.5,16.5,1.7,19.5-3.4"/>
	<path class="st9" d="M230.9,322.3c-0.4-1.7-1-3.2-1.8-4.7"/>
	<path class="st9" d="M415.3,364.5c16.8,0.4,40.6,0.8,62.8,1.1c25.5,0.3,49,0.5,58,0l-0.3-10.3c-14.9-0.7-41.4-1-41.4-1"/>
	<path class="st9" d="M392.3,364c0,0,9.2,0.2,23,0.5"/>
	<path class="st9" d="M648.9,452.6c-0.9,8.9-11.4,16.5-19.6,16.4c-11.3-0.1-17.2-7.7-19.6-14.6"/>
	<path class="st9" d="M561.9,341.2h-54.1"/>
	<path class="st9" d="M607.5,638.1c4.3-0.5,8.7-1.1,12.9-2c12.3-2.5,24.2-6.8,35.2-12.8c18.9-10.2,34-26.2,43.3-45.5
		c3.3-7.1,5.6-15.8,7-25.7c15.5-0.1,30.4-0.6,37.3-1.8c39.3-6.9,40.3-53.5,28.6-85c-6.9-18.6-14.3-26.2-33.1-29.3l-0.9-0.2
		c-6.5-1-30.4,0-38.3,0.5c-2.2-12.8-5-25.5-8.6-38c-5.2-18.2-17.5-32.8-30.8-42.7c-8.6-6.5-22.5-10.7-43.8-12.8"/>
	<path class="st9" d="M352,632c3.3,0.5,6.6,1,9.9,1.5c11.8,1.7,23.7,3.2,35.5,4.4c23.7,2.5,47.6,3.7,71.4,3.7
		c15.3,0,64.9-1.4,98.2-2.2"/>
	<path class="st9" d="M359.8,642.1c12.1,0.1,24.2,0,36.2-0.5l0,0"/>
	<path class="st9" d="M263,557.1L263,557.1c5.2,15.9,11,33,23,44.4c7.8,7.7,16.8,14.1,26.6,19"/>
	<line class="st9" x1="736.9" y1="501.4" x2="736.6" y2="486.5"/>
	<path class="st9" d="M743.2,550.3c-24.5,0.6-32.3-33.3-32.3-58s5.5-48,27.7-56.2"/>
	<path class="st9" d="M351.2,631.7c-4.1,11.2-10,24.6-13.7,33.8c-4.2,10.6-7.2,22.9-15.4,31.2c-5.8,5.9-12.9,8.9-19.5,2.5
		c-9.6-9.3-1.5-27.5,0.6-38.8c2-10.4,6.1-27.2,9.3-39.9"/>
	<path class="st9" d="M397.3,638.2c-0.5,1.2-0.9,2.3-1.4,3.4c-3.6,8.4-7.4,16.1-10.1,22.4c-4.4,10.2-7.8,22.3-15.5,30
		c-5.5,5.5-12,8.1-17.5,1.5c-8-9.7,0.3-27.2,2.9-38.3c1-4.2,2.4-9.5,3.9-15.2c0.8-2.8,1.5-5.6,2.4-8.5"/>
	<path class="st9" d="M607.5,638.1c4.5,12.8,9,19.9,13,32.9c5.9,18.8,7.6,32.5-5.9,32.5s-18.6-10-36.2-42.7
		c-2.9-5.5-7.5-13.9-11.5-21.3c-4.7-8.6-8.6-15.9-8.6-15.9"/>
	<path class="st9" d="M656,624c0.4,1.1,0.8,2.2,1.2,3.3c5.4,15,11,26.5,15.9,42.2c5.8,18.8,7.6,29.2-5.9,29.2s-18.6-10-36.1-42.7
		l-6.5-12.1l-4.2-7.9l0,0"/>
	<line class="st9" x1="757" y1="500.5" x2="756.8" y2="485.6"/>
	<path class="st9" d="M624.6,644c11.6-3.8,22.6-9.4,32.6-16.5"/>
	<path class="st9" d="M560.3,374.5c-0.8-8,0.1-21.6,1.1-29.6c0.2-1.2,0.3-2.5,0.5-3.7c2.7-16.1,10.2-32.5,21.7-44.1
		c6.1-6.2,10-6.3,15.4,1.1c7.8,10.8,11.5,23.2,15,35.9c0.8,2.8,1.6,6,2.2,8.8c0.8,3.8,1.4,6.7,1.4,6.7"/>
	<path class="st9" d="M585.6,385.5c-2.7-14-3.5-36.3-3.5-50.6c0-9.8,1.1-21.2,5.2-30.2"/>
	<path class="st9" d="M614,334.1c6.3-10.7,17.1-21.5,30.8-32.7c5.8-4.8,24-17.6,26.5-3.9c3,16-1.8,35.5-10,57.9"/>
	<path class="st9" d="M630.9,343.9c9.4-17.4,19.6-32.1,30.9-43.3"/>
	<path class="st9" d="M357,303.5c-0.4-2.8-0.7-5.7-0.8-8.6c0-1,0-2,0-3c0.1-46,37.4-83.2,83.3-83.1s83.2,37.4,83.1,83.3
		c0,30.9-17.2,59.2-44.5,73.6"/>
	<path class="st9" d="M376.3,313.6c-1.1-2.8-2-5.6-2.8-8.4c-0.6-2-1.1-4-1.5-6c-2.3-10.3-2.6-21-0.8-31.4
		c2.6-15.5,10.1-29.7,21.2-40.7c4.5-4.5,9.4-8.4,14.8-11.8"/>
	<path class="st9" d="M401.4,354c3.8,4.3,10.9,9.6,13.9,10.5l0,0"/>
	<line class="st9" x1="359" y1="272.5" x2="370.6" y2="267.7"/>
	<line class="st9" x1="359.5" y1="311.6" x2="373.2" y2="305.3"/>
	<line class="st9" x1="362.8" y1="303.2" x2="372" y2="299.2"/>
	<path class="st9" d="M220.7,324.8c-0.4-1.7-1-3.2-1.8-4.8"/>
	<line class="st9" x1="924.8" y1="409.7" x2="923.7" y2="409.1"/>
	<path class="st9" d="M892.6,329.7c-1.2,2.8-2.3,5.6-3.1,8.5c-5,17-9,45.7-10.8,60.2c-0.7,5.2,2.4,10.2,7.3,12l24,8.6
		c4.4,1.6,9.3-0.1,11.8-4c1.4-2.2,3.1-4.8,5-7.7c7.4-11.4,17.4-27,24.9-38.6c3.8-5.8,6.9-10.7,8.7-13.5c6-9.2,25.5-38,36.4-52.3
		c1.9-2.5,3.5-4.5,4.8-5.9c5.5-6.3,10.5-21.6,7.3-29.6c6.1-1,11.7,3.1,16.4,10.2c3.7,5.6,6.9,13.1,9.3,21.3
		c2.3,7.6-2.3,22.3-5.4,30.1c-4.8,11.8-19.5,38.7-26.7,49.6c-17.3,26-26.3,44.5-37.8,73.7c-5.3,13.6-9.6,35.2-10.5,49.9
		c-3.1,50.9-3.1,103.4-3.1,154.3c0,16.4,0.8,30.7-0.1,47c-9.4,0.5-66.8,0-66.8,0s7.4-7.5,7.6-15c0.4-16.7,0.9-130.4,1.3-154.3
		c0.2-9.7-1-35-1-35l-16.7-1.5c0,0-2.8,33.6-3.1,51.7c-0.5,25.5-3,89.1-3,114.6c0,8.6-0.2,39.3-0.2,39.3h-72c0,0,8.9-13.5,9.3-18
		c0.5-7,0.8-17.5,0.8-24.4c0-34.1,2.3-68.2,2.6-102.2c0.8-75.8,20.2-208.7,53.6-283.3"/>
	<path class="st9" d="M951.8,368.6c-0.5-6.7-2.8-13.2-6.7-18.8c-8.5-12.4-25.6-13.8-36.9-4.8c-2.4,2-4.5,4.3-6.1,7
		c-4.8,7.9-7.6,17-8,26.3c-0.4,9,0.6,16.8,6.2,24s18.1,9,26.6,5"/>
	<line class="st9" x1="922.2" y1="364.8" x2="923.9" y2="361.1"/>
	<line class="st9" x1="910.3" y1="361.5" x2="911.9" y2="357.8"/>
	<path class="st9" d="M919.8,376.5c-1.7,1.9-6.5,1.2-8.7-0.1"/>
	<path class="st9" d="M867.2,287.1c5.8,15.7,14.4,30.1,25.4,42.6l0,0c4.8,5.5,10,10.6,15.6,15.4l0,0"/>
	<path class="st9" d="M870.6,222.2c-5,6.6-8.3,14.9-9.1,24.9c-0.7,9.4,0,18.8,2.2,27.9l0,0c0.9,4.1,2.1,8.1,3.5,12"/>
	<path class="st9" d="M1009,267.3c-2.8-4.9-5.9-9.7-9.2-14.2c-0.4-0.5-0.8-1.1-1.2-1.6c-2.8-3.7-5.9-7.4-9.1-11.1
		c-19-21.4-41-37.3-70.3-38c-1.6,0-3.2,0-4.9,0c-17.9,0.6-34,7.1-43.6,19.8"/>
	<path class="st9" d="M867.2,287.1L867.2,287.1c3.9,18.4,11.5,35.8,22.4,51.1"/>
	<path class="st9" d="M996.9,302.8c-3.1-14-8.5-27.4-15.9-39.7c-15.5-25.5-40-44.7-71.5-49.5c-1.4-0.2-2.9-0.4-4.3-0.6
		c-14.7-1.5-28.9,2.6-34.5,9.1l0,0"/>
	<path class="st9" d="M950.4,301.4c-3.7,1.7-7.6,2.7-11.7,3.1c-10.1,0.8-18.4-3.8-22.3-10.3c-4.5-7.5-0.4-13.1,5.8-15.8
		c3.7-1.6,7.7-2.1,11.7-1.5"/>
	<path class="st9" d="M913.7,264.2c0,0,3.8,6.4,8.5,14.1c4.6,7.5,9.9,16.2,13.6,21.6c0.8,1.2,1.8,2.8,3,4.5
		c3.3,5.1,7.3,11.4,7.3,11.4"/>
	<path class="st9" d="M1029.8,294.1c0.5-1.5,0.8-3,1.1-4.5"/>
	<path class="st9" d="M1024.7,282.3c0.6-1.5,0.8-3.2,0.6-4.8c0-0.1,0-0.1,0-0.2"/>
	<path class="st9" d="M993.5,288.5c2.6-2.6,5.7-4.7,8.2-7.3"/>
	<path class="st9" d="M992.4,265.5c-2.1,1.6-4.1,3.4-5.9,5.3"/>
	<path class="st9" d="M997.5,252.3c-3.4,2.6-10.4,9-10.4,9"/>
	<path class="st9" d="M968,230.9c-2.4,1.8-4.5,3.9-6.5,6.2"/>
	<path class="st9" d="M945.2,207.9c-2.2,2.2-5.2,4.2-7,6.7"/>
	<path class="st9" d="M919.1,203.7c-2.9,2.2-9.5,9.2-9.5,9.2"/>
	<line class="st9" x1="558.2" y1="216.4" x2="579.6" y2="204.3"/>
	<line class="st9" x1="531.7" y1="173" x2="544.2" y2="152.4"/>
	<line class="st9" x1="330" y1="228.2" x2="317.2" y2="216.8"/>
	<line class="st9" x1="369.2" y1="182.3" x2="356.1" y2="161.2"/>
	<line class="st9" x1="461.9" y1="147.5" x2="466.5" y2="117.9"/>
	<path class="st9" d="M919,21.7H647c-6.1,0-11.1,5-11.1,11.1v69.6c0,6.1,5,11,11.1,11h14.8c0.8,13.1,3.3,39,3.3,39
		c5.6-5.3,27.2-32.5,33.3-39H919c6.1,0,11-5,11-11V32.8C930,26.7,925.1,21.8,919,21.7z"/>
	<path class="st9" d="M877.2,45.9c0,3.2-0.2,6.6-0.4,10.1s-0.5,7.2-0.7,10.8c-0.2,3.9-0.4,7.7-0.2,11.4c0.1,3.8,0.5,7.6,1.4,11.3"/>
	<path class="st9" d="M886.4,45.4c-0.4,3.6-0.7,7.2-1,10.8c-0.3,3.8-0.5,7.6-0.6,11.5c-0.1,3.6-0.2,7.2-0.2,10.8
		c0,3.3,0,6.5,0.1,9.8"/>
	<path class="st9" d="M894.6,57.5c-3-0.8-6.1-1.2-9.2-1.4c-2.9-0.2-5.8-0.2-8.7-0.1c-5.6,0.3-10.6,1.5-11.6,4.1
		c-1.5,4,4,5.7,10.8,6.7c2.9,0.4,5.9,0.6,8.8,0.8c5.7,0.3,10.6,0.5,11.6,1.1c6.7,4.2,1,8-4.4,9c-2.4,0.4-4.9,0.6-7.3,0.7
		c-2.9,0.1-5.9,0-8.9-0.1c-4.5-0.3-8.9-0.8-13.3-1.5"/>
	<path class="st9" d="M671.5,96.6c0-10.1,0.5-36,0.5-36c-2.8,0-5.6,0.4-8.4,0.4c4.9-7.8,10.2-15.4,15.9-22.6
		c0,0,15.4,15.1,18.1,21.9c-2.7,0.9-6.5,0.7-9.7,1.4c0,0,1,28.7,1,34.5C681.8,96.1,671.9,96.9,671.5,96.6z"/>
	<path class="st9" d="M830,53.7c5-2.5,13-2.6,15.5,0.8c5.3,7.5,1.9,20.4-1.7,30"/>
	<path class="st9" d="M830,53.7c5.9,7,5.6,21.1,0.2,26.1c-4.7,4.3-10.5,2-11-1.1c-1.4-8.4,4.2-19,8.1-23
		C828.1,54.8,829,54.1,830,53.7z"/>
	<path class="st9" d="M804.3,53c0.3-0.2,0.5-0.3,0.8-0.4c5.7-2.9,15-4.8,21-2c1.6,0.7,2.9,1.8,4,3.1"/>
	<path class="st9" d="M804.3,53c4.1,3.5,6.8,9,6.1,14.3c-1.2,8.9-7.3,21.8-16.9,18.4C784.2,82.4,794.4,59.1,804.3,53z"/>
	<path class="st9" d="M777.8,52.9c5.7-2.7,11.5-3.1,16.8-3.4c3.6-0.1,7.1,1.2,9.7,3.6"/>
	<path class="st9" d="M777.8,52.9c5.4,4.8,7.3,12.4,4.9,19.3c-4.2,12.9-9.7,16.3-17.4,16.3s-5.8-16.7,2.6-27.3
		C770.5,57.6,773.9,54.8,777.8,52.9z"/>
	<path class="st9" d="M748.5,58.6c8.3-7.9,18.3-11.1,24-9.1c2,0.8,3.8,1.9,5.3,3.4"/>
	<path class="st9" d="M748.5,58.6c3.2,11.9-0.4,31.9-6.6,32.1c-8.9,0.2-7.3-14.9,1.7-26.6C745.1,62,746.8,60.2,748.5,58.6z"/>
	<path class="st9" d="M722.5,87.2c0-10.4,2.8-35.9,17.4-37.3c4.5-0.4,7.3,3.3,8.7,8.6"/>
</g>
</svg>
