<?xml version="1.0" encoding="utf-8"?>
<!-- Generator: Adobe Illustrator 27.0.0, SVG Export Plug-In . SVG Version: 6.00 Build 0)  -->
<svg version="1.1" id="Layer_1" xmlns="http://www.w3.org/2000/svg" xmlns:xlink="http://www.w3.org/1999/xlink" x="0px" y="0px"
	 viewBox="0 0 1297 740.8" style="enable-background:new 0 0 1297 740.8;" xml:space="preserve">
<style type="text/css">
	.st0{fill:#C1E4EA;stroke:#000000;stroke-width:3;stroke-linecap:round;stroke-linejoin:round;}
	.st1{fill:#FFFFFF;}
	.st2{fill:#ECEBE6;}
	.st3{fill:#D3C9D7;}
	.st4{fill:#D5D4B3;}
	.st5{fill:#AEAD8C;}
	.st6{fill:none;stroke:#000000;stroke-width:3;stroke-linecap:round;stroke-linejoin:round;}
</style>
<g id="search">
	<polygon class="st0" points="1266.8,462.6 1190.4,255.5 1115.1,278.2 1140,186.8 937.3,90.3 859.7,238.7 808.7,139.5 672.2,168.4 
		684.9,111.8 474.1,1.5 408.7,101.6 241.5,37.8 148.6,253.4 247.4,304.3 160.4,324.3 182.4,418.5 121.9,404 1.5,593 150.2,696.1 
		1172.8,696.1 1264.2,605.8 1160,528.5 	"/>
	<path class="st1" d="M1295.5,491.5c-8,9.9-15.7,20.3-23.5,30.4c-3.2,4.1-13.7,16-13.7,16s-11.8,2.4-18.2,2.3
		c-12-0.1-24.9-4.1-35.7-9.7c-13.1-6.8-22.6-18.8-30.4-30.7c-4.5-6.9-10.5-18.6-12.6-28.5c0.6-1.3,19-14.9,22.3-17.6
		c7.1-5.7,21.8-18.3,28.3-23.7C1228.3,462.7,1257.9,489.6,1295.5,491.5z"/>
	<path class="st1" d="M1209.8,699.7c0,3.7,0,7.5,0,11.3h-0.2c-6.9,0.8-30.9,1.2-52.1,1.4c0-3.5,0.1-6.9,0.1-10.3h6.3
		c15.1,0,30.3-0.8,45.3-2.4L1209.8,699.7z"/>
	<path class="st1" d="M1209.6,711h0.2c0,3.1,0,6.2,0,9.2h-0.8c-16.7,0.7-34.2,1.2-51.5,1.3c0-3,0-6,0-9.1
		C1178.7,712.2,1202.7,711.8,1209.6,711z"/>
	<path class="st1" d="M1209.8,699.7h-0.6c-15.1,1.6-30.2,2.4-45.3,2.4h-6.3c0-4.1,0-8.2-0.1-12c0-0.2,0-0.5,0-0.7
		c21.7,0.3,44.1,0.3,52.3-0.8C1209.7,692.1,1209.7,695.8,1209.8,699.7z"/>
	<path class="st1" d="M1209,720.2h0.8c0,3.8,0,7.5-0.1,10.9c-17.2,1.2-35.1,1.9-52.2,2v-1.4c0-3.3-0.1-6.8,0-10.3
		C1174.8,721.4,1192.2,721,1209,720.2z"/>
	<path class="st1" d="M1209.6,677c0,3.3,0.1,7.2,0.1,11.6c-8.2,1.1-30.7,1-52.3,0.8c-0.1-2.8-0.1-7.2-0.1-11.1
		c17.1-0.1,34.4-0.6,51-1.3L1209.6,677z"/>
	<path class="st1" d="M1209.6,677h-1.3c-16.6,0.7-33.8,1.2-51,1.3c0-4.7,0-8.7,0-8.7v-2.2c9.8,0,21.8,0.1,31.9,0.2
		c11.5,0.1,20.3,0.2,20.3,0.2S1209.5,671.3,1209.6,677z"/>
	<path class="st1" d="M1189.2,645.9c0,4.2,0,8.1,0,11.3h-0.9c-7.6,0.7-34.6,0.5-57.5,0.2c0-3.4,0-6.8-0.1-10.3l9.6,0.2
		C1152.7,647.5,1174,647.2,1189.2,645.9L1189.2,645.9z"/>
	<path class="st1" d="M1188.3,657.2h0.9c0,5.5,0,9.2,0,9.2v1.2c-10-0.1-22.1-0.1-31.9-0.2c-9.5,0-16.9,0-18.5,0.1
		c-2.6,0.2-5.2,0.3-7.9,0.4v-1.1c0-3.1-0.1-6.2-0.1-9.4C1153.8,657.7,1180.8,657.8,1188.3,657.2z"/>
	<path class="st1" d="M1189.2,645.9L1189.2,645.9c-15.2,1.4-36.5,1.6-48.8,1.3l-9.6-0.2c0-4.2-0.1-8.6-0.2-12.8
		c23.8,0.8,49.4,1.5,58.5,0.6h0.1C1189.2,638.5,1189.2,642.3,1189.2,645.9z"/>
	<path class="st1" d="M1189.1,634.7h-0.1c-9,0.9-34.7,0.3-58.5-0.5c-0.1-3.7-0.2-7.4-0.4-11.1c19.3,0.4,38.9,0.3,57.6,0h1.2
		C1189,626.8,1189.1,630.7,1189.1,634.7z"/>
	<path class="st1" d="M1188.9,623.1h-1.2c-18.7,0.3-38.3,0.4-57.6,0c-0.2-3.8-0.4-7.5-0.8-11.1v-1.1c19.8,0.9,40.3,1.3,59.1,1.2
		C1188.7,615.2,1188.8,619,1188.9,623.1z"/>
	<path class="st2" d="M1157.4,690.1c0.1,3.9,0.1,7.9,0.1,12c-17.7,0-38.1-0.1-55-1c-13.1-0.7-43.4-1.6-59.6-1h-0.4
		c0-4.1-0.1-8.3-0.1-12.3h0.1c22.5-0.3,47.4,0.7,69.9,0.8c7.8,0,26,0.4,44.8,0.7C1157.4,689.6,1157.4,689.9,1157.4,690.1z"/>
	<path class="st2" d="M1157.5,702.1c0,3.4,0,6.9-0.1,10.3c-13.4,0.1-25.8,0.1-31.9,0.1c-27.5-0.3-54.3-1.1-82.8-1.2
		c-0.1-3.6-0.1-7.3-0.1-11.1h0.4c16.1-0.6,46.5,0.3,59.6,1C1119.5,702.1,1139.8,702.1,1157.5,702.1z"/>
	<path class="st2" d="M1157.5,731.8v1.4c-5.1,0-10.1,0-14.9-0.1c-32.4-0.6-59.3-0.2-99.2-0.5c-0.1-1.3-0.2-5.8-0.4-11.9
		c1.4,0,62.4-0.5,79,0.2c11.6,0.5,23.5,0.7,35.4,0.6C1157.4,725,1157.4,728.5,1157.5,731.8z"/>
	<path class="st2" d="M1157.5,712.4c0,3,0,6.1,0,9.1c-12,0.1-23.9-0.1-35.4-0.6c-16.6-0.7-77.7-0.2-79-0.2c-0.1-2.8-0.1-6-0.2-9.4
		c28.5,0.2,55.3,1,82.8,1.2C1131.7,712.6,1144,712.6,1157.5,712.4z"/>
	<path class="st2" d="M1157.3,667.4v2.2c0,0,0,4.1,0,8.7c-12.2,0.1-24.3-0.1-36-0.6c-16.8-0.7-78-0.2-78-0.2l74.4-9.3l0,0
		c4.4,0,8.8-0.1,13.3-0.3c2.6-0.1,5.3-0.2,7.9-0.4C1140.4,667.4,1147.8,667.3,1157.3,667.4z"/>
	<path class="st2" d="M1157.3,678.3c0,4,0,8.4,0.1,11.1c-18.8-0.2-37-0.7-44.8-0.7c-22.5-0.1-47.5-1.1-69.9-0.8h-0.1
		c0-3.8,0-7.3,0.1-10.5h0.7c0,0,61.2-0.5,78,0.2C1133.1,678.2,1145.1,678.3,1157.3,678.3z"/>
	<path class="st2" d="M1130.9,666.8v1.1c-4.4,0.2-8.8,0.3-13.3,0.3l0,0c-5.5,0-11,0-16.5-0.1c-18.8-0.4-58.1-1.3-58.1-1.3
		c0.2,0-26.4-0.8-31.7-0.5c-0.1-4.1-0.1-8.3-0.2-12.5h1.5c30,0.8,58.2,2.3,87.2,3.2c6,0.2,17.8,0.4,31,0.6
		C1130.8,660.6,1130.9,663.7,1130.9,666.8z"/>
	<path class="st2" d="M1130.7,647c0,3.5,0,6.9,0.1,10.3c-13.1-0.2-24.9-0.5-31-0.6c-29-0.9-57.2-2.3-87.2-3.2h-1.5
		c-0.1-3.7-0.1-7.4-0.2-11.1h2.2c17-0.3,48.9,1.3,62.7,2.3C1092.7,646,1112.8,646.6,1130.7,647z"/>
	<path class="st2" d="M1130.5,634.2c0.1,4.3,0.2,8.6,0.2,12.8c-17.9-0.4-38-1-54.9-2.2c-13.7-1-45.7-2.6-62.7-2.3h-2.2
		c0-4.1-0.1-8.2-0.1-12.3h2.2c23.7,0.2,49.9,1.8,73.6,2.4C1094.5,632.8,1112,633.5,1130.5,634.2z"/>
	<path class="st2" d="M1130.1,623.1c0.2,3.6,0.3,7.3,0.4,11c-18.6-0.6-36.1-1.4-43.8-1.6c-23.7-0.6-49.9-2.2-73.6-2.4h-2.2
		c0-3.5,0-7,0-10.5h2c0,0,65.6,0.9,83.2,2C1107.2,622.5,1118.6,622.9,1130.1,623.1z"/>
	<path class="st2" d="M1129.3,612.1c0.3,3.6,0.6,7.3,0.8,11.1c-11.5-0.2-22.9-0.7-34-1.4c-17.7-1.1-83.2-2-83.2-2h-2
		c0.1-4.3,0.2-8.6,0.3-12.7c11.4-1.1,23.9,1.3,35.4,1.7c19.3,0.7,38.7-0.6,58,0.8c8,0.6,16.3,1.1,24.8,1.4L1129.3,612.1z"/>
	<path d="M1117.7,668.1l-74.4,9.3h-0.7c0.1-4.7,0.2-8.5,0.5-10.8c0,0,39.3,0.9,58.1,1.3C1106.6,668.1,1112.1,668.2,1117.7,668.1z"/>
	<path class="st1" d="M1102.2,295.9c-5.8,9.9-16.2,21.8-24.2,29.7c-8.1,8-28,21.6-28,21.6s-14.9-2.9-24.9-6
		c-5.2-1.6-10.3-3.5-15.4-5.6c-11.1-4.7-21.8-10.3-32.7-15.7c-3.2-1.6-6.5-3.5-9.9-5.5c-11-6.5-23.1-14.2-34.6-15.9
		c10.5-5.4,21.4-9.8,32.7-13.3c14.3-4.4,29.5-5.3,44.3-2.8c12.7,2.4,23.5,7.8,36.3,10.1C1064.4,296,1083.3,297.2,1102.2,295.9z"/>
	<path d="M971.5,318l-4.4-3.5c3.4,2,6.7,3.9,9.9,5.5c10.8,5.3,21.6,11,32.7,15.7l-0.2,1.5c-0.7,2.2-1.1,4.5-1.4,6.8
		c-0.1,1-0.2,2.1-0.3,3.3l-13.1-10.6L971.5,318z"/>
	<path class="st2" d="M994.6,336.6l13.1,10.6c-0.2,1.7-0.6,3.6-1,5.7l-1.6-0.3c-10.2-2.5-36.2-7-47-9.1
		c-14.3-2.7-72.8-11.6-87.7-13.8l-10-1.4c0.2-0.9,0.4-1.9,0.6-2.8c0.5-2.2,1.3-5.7,2.2-9.5c19.7,2.5,39.3,5.7,58.9,8.8
		c18.9,3,72,12.3,72,12.3L994.6,336.6z"/>
	<path class="st2" d="M1005.2,352.6l1.6,0.3c-0.8,4.2-1.9,9-3.1,13.9l-0.4-0.1c-19-2.8-67.4-11.8-86.3-14.9
		c-19.8-3.2-39.6-6.3-59.5-8.9c1-4.9,2-9.8,3.1-14.6l10,1.4c14.9,2.1,73.4,11.1,87.7,13.8C969,345.6,995,350,1005.2,352.6z"/>
	<path class="st2" d="M1003.2,366.7l0.4,0.1c-1.1,4.4-2.2,8.9-3.3,13l-0.5-0.1c-10.2-2.5-36.2-7-47-9.1
		c-14.3-2.7-72.8-11.6-87.7-13.8l-10.4-1.5c1-4.1,1.9-8.2,2.8-12.4c19.9,2.6,39.6,5.7,59.5,8.9C935.8,354.9,984.2,364,1003.2,366.7z
		"/>
	<path class="st2" d="M999.8,379.7l0.5,0.1c-1.1,4-2.1,7.7-3,10.8l-0.6-0.2c-19-2.8-66.3-11.8-85.2-14.9c-19.9-3.2-39.7-6.4-59.7-9
		c1-3.7,2-7.5,2.8-11.3l10.4,1.5c14.9,2.2,73.4,11.1,87.7,13.8C963.7,372.7,989.5,377.1,999.8,379.7z"/>
	<path class="st2" d="M996.7,390.5l0.6,0.2c-1.4,5.1-2.4,8.4-2.4,8.4s-4.9-0.7-12.2-1.7c-17-2.3-46.9-6.3-58.6-7.2
		c-1.9-0.1-4.2-0.4-6.8-0.7c-17-2.1-46-7.5-68.7-11.9l0.1-0.5c1.1-3.4,2.2-6.9,3.1-10.4c20,2.6,39.8,5.8,59.7,9
		C930.5,378.6,977.7,387.7,996.7,390.5z"/>
	<path class="st2" d="M994.6,336.6l-0.4,0.6c0,0-53.1-9.3-72-12.3c-19.6-3.2-39.2-6.3-58.9-8.8c1.1-4.7,2.4-10.1,3.5-14.6l9,1.3
		c14.9,2.2,73.4,11.1,87.7,13.8c2.2,0.4,5,0.9,8.1,1.5L994.6,336.6z"/>
	<path class="st3" d="M836.5,454.9c5.3,1.5,10.3,3.1,14.6,4.6c3.7,1.3,7.7-0.2,9.7-3.5c3.8-6.2,10.6-16.5,18.9-27.3
		c3.3-4.3,6.9-8.5,10.4-12.8c3.9-4.6,7.8-9.1,11.6-13.8c4.5-5.6,8.6-10.6,15.5-12.7c2.5,0.3,4.8,0.5,6.8,0.7
		c11.8,0.9,41.7,4.9,58.6,7.2c1.1,7.6-10,8.9-16.7,10.7c-10.6,2.9-15.5,4-22.4,12.2c-12.8,15.3-23.1,31-33.8,47.8
		c-5.5,8.7-23.2,40.2-28.5,62.2c-5.3,22-18.5,64.4-18.5,94.3c0,28.8,2.5,65.9,8.2,110.1c0.3,2.2-1.3,4.3-3.5,4.6c-0.2,0-0.3,0-0.5,0
		c-23.3,0.2-63.7,0-63.7,0l10.2-12c0,0-10.6-39.5-12.4-56.2c-2-18.7-5.2-39.3-3.3-57.5c2.2-21.6,5.7-50.3,13.3-73.4
		c-22.6,7.2-46.4,18.9-52.5,22c-7.4,3.7-28.3,17.5-33.7,24c-3.5,4.3-19.1,42.5-20.9,47.7c-2.5,7-15.9,36-21.7,48.4
		c-1.5,3.1-5.2,4.5-8.3,3.1c-6.8-3-17.9-7.8-23.1-10.3c-7.9-3.7-23.4-13.9-23.4-13.9s9.6-5,12.8-5.4c5.2-12.3,8.5-24,11.5-34.1
		c4.2-13.9,8.7-28.1,13.9-41.7c3.2-8.3,8.2-21,13.3-28.2c6.3-9.1,18.1-21.3,26.8-27.6c15.5-11.2,38-22.7,54.8-33.7
		c9.9-36.9,11.8-63.5,13.3-83.4c1-12.2,4.3-41,4.4-41.7c10.4,1.8,30.2,5.2,38.6,6.4c0.5,0.1,1.2,0.2,1.9,0.3l-0.1,0.4
		c0,0-2.7,64.8-2.2,76.3l-0.2,1.8C823.3,451.5,830,453,836.5,454.9z"/>
	<path class="st2" d="M967.2,314.4l4.3,3.6c-3.1-0.6-5.9-1.1-8.1-1.5c-14.3-2.7-72.8-11.6-87.7-13.8l-9-1.3l2.5-10.1l0.2-1.2
		c23.9,3.2,50.2,6.7,63.2,8.4C944.1,300.2,956.2,308,967.2,314.4z"/>
	<path class="st1" d="M941.5,185.2l-10.9,6.3c0,0-11.3-13.2-14.9-19.4l-12,7.2c-2.9-7.2-3.6-16.1-6-23.8c-3.3-10.1-6.8-33-6.8-33
		s21.4,14.9,33.4,22.6c2.5,1.6,13,8.8,15.4,11.4c-1.1,0.5-13.3,7-12.7,7.7C932.8,171,941.5,185.2,941.5,185.2z"/>
	<path class="st3" d="M857.3,398c13.3-6,35-1,32.8,17.8l0.1,0.1c-3.6,4.2-7.1,8.4-10.4,12.8c-8.4,10.8-15.1,21.1-18.9,27.3
		c-2,3.3-6.1,4.7-9.7,3.5c-4.3-1.5-9.3-3.1-14.6-4.6c-9.5-4.5-10-24.7-2.3-36.2C839.7,410.1,848.4,402.1,857.3,398z"/>
	<path class="st1" d="M869.4,290.1l-0.2,1.2l-2.5,10.1c-26.2-3.8-80.1-11.5-80.1-11.5l-0.5-0.1c1.4-6.8,2.4-11.2,2.5-11
		c0.8,0.7,26.6,4,33.6,5S848.5,287.3,869.4,290.1z"/>
	<path class="st1" d="M866.8,301.4c-1.1,4.5-2.4,9.8-3.5,14.6c-3.9-0.5-7.8-1-11.8-1.5c-23.1-2.7-45-8.4-67.7-10.9l-0.4-0.1
		c1-5.1,1.9-9.8,2.7-13.7l0.5,0.1C786.7,289.9,840.6,297.6,866.8,301.4z"/>
	<path class="st1" d="M863.3,316c-0.9,3.8-1.7,7.3-2.2,9.5c-0.2,0.9-0.4,1.9-0.6,2.8c-26.6-3.8-79.1-11.3-79.1-11.3l-0.5-0.1
		c0.9-4.6,1.7-9.1,2.6-13.3l0.4,0.1c22.7,2.5,44.6,8.2,67.7,10.9C855.5,315,859.4,315.5,863.3,316z"/>
	<path class="st1" d="M860.5,328.3c-1,4.9-2,9.8-3.1,14.6c-3.7-0.5-7.5-0.9-11.2-1.4c-23.1-2.7-45-8.4-67.6-10.9l-0.3-0.1
		c0.9-4.5,1.8-9.2,2.6-13.8l0,0l0.5,0.1C781.4,316.9,834,324.5,860.5,328.3z"/>
	<path class="st1" d="M857.4,343c-0.9,4.2-1.8,8.3-2.8,12.4c-26.7-3.8-78.7-11.3-78.7-11.3l-0.3-0.1c0.8-4.2,1.6-8.7,2.5-13.4
		l0.3,0.1c22.7,2.5,44.5,8.2,67.6,10.9C850,342,853.7,342.4,857.4,343z"/>
	<path class="st1" d="M854.7,355.3c-0.9,3.8-1.8,7.6-2.8,11.3c-3.7-0.5-7.3-0.9-11-1.3c-23.1-2.7-43.8-8.4-66.5-10.9h-0.6
		c0.6-3,1.2-6.5,2-10.4l0.3,0.1C776.1,344.1,828,351.5,854.7,355.3z"/>
	<path class="st1" d="M778.5,365.3l-6.7-1.2c0,0,0.7-3.8,1.8-9.8h0.6c22.7,2.5,43.5,8.2,66.5,10.9c3.7,0.4,7.3,0.9,11,1.3
		c-1,3.5-2,7-3.1,10.4l-0.1,0.5c-13-2.5-24-4.6-29.5-5.5c-0.8-0.1-1.4-0.2-1.9-0.3C808.7,370.5,789,367.1,778.5,365.3z"/>
	<path class="st1" d="M743.1,237.6c0.1,4.9,0.9,18.9-5.3,25.2c-5.6,5.6-23.6,5-39.9,5.5c-28.5,1-107.2,1-124.7,0.4
		c-19.6-0.6-77.3,0.4-97,0.2c-23.1-0.3-86.7,1.2-93.2,0c-10.3-2-18.5-6.4-21.3-15.2c-4-12.9-2.6-46.6,2.7-59.1
		c4.4-10.4,19.7-11.4,32-11.9c68.9-2.8,123.4-0.5,191.9-0.5c20.3,0,55.3,1.9,75.6,1c13.9-0.6,29.5-0.1,43.6-0.1
		c7.6,0,22.6,1.1,28.2,5.7c5.4,4.4,6.4,15.3,6.7,21.8C742.8,219.7,743,228.7,743.1,237.6z M702.5,235.2c6.3-6.4,7.3-19.2,0.8-25.1
		c-8.3-7.6-18.9-7.4-25.5,5.9s7.1,31.1,22.5,21.1C701,236.5,701.8,235.9,702.5,235.2L702.5,235.2z"/>
	<path class="st1" d="M703.2,210c6.5,5.9,5.5,18.7-0.8,25.1c-0.7,0.7-1.5,1.3-2.3,1.9c-15.3,10-29.1-7.8-22.5-21.1
		S694.9,202.5,703.2,210z"/>
	<path class="st4" d="M589.5,523c3.4,29.4,3.6,57.4,3.8,87.2c-17.7,1.8-46.7,3.4-62.1,3.9c-12,0.4-38.4,0.5-53.7,0.4v-2.3
		c-1.1-27.1-2.1-54.2-3.2-81.3l-0.1-2.6c3.6-0.2,7.2-0.4,10.7-0.6c15.3-0.8,30.5-1.8,45.6-2.7c16.6-1,31-1.9,48.5-2
		C582.4,523,585.9,523,589.5,523z"/>
	<path class="st1" d="M579,520.7v2.3c-17.4,0.1-31.9,1-48.5,2c-15.1,0.9-30.3,1.9-45.6,2.7v-0.4c-0.4-6.1-0.2-22.2-0.2-22.2v-0.5
		c32.3-2.2,83.9-4.2,93.8-3.7C578.3,508,579,520.7,579,520.7z"/>
	<path class="st3" d="M475.8,452.2c1.9-3.7,16.7-24.6,20.9-15.4c1.6,3.6-2.3,7.4-4.4,10.4c-3.3,4.6-6,10-9.2,14.3
		c2.5-2.1,8.9-8.2,12.5-7.8c5.2,0.7,1.9,6.7,0.5,9.2c-5.2,9-11.8,16.6-17.4,25.5h-0.4c-0.3-8.9-0.6-18-0.6-18l-54.3,3v-0.6
		c2.5-4.7,3.3-11.1,4.3-16.3s0.3-14.6,3.2-19c6.8-10.1,10.5,9.1,10.6,13.1c4.7-8.5,10.5-17.7,15.8-25.7c2-3.1,4.2-7.8,8.6-7.2
		c5.6,0.8,3.4,6.7,2.3,10.6c-1.3,4.6-3,10.6-5.5,14.6c6.1-6.3,9.4-16.3,16.4-21.8c3-2.4,8.2-3.3,10.1,1.3c1.6,4-2.4,10-4.4,13.7
		C481.8,441.6,477.9,446.7,475.8,452.2z"/>
	<path class="st1" d="M484.9,527.2v0.5c-3.6,0.2-7.2,0.4-10.7,0.6c-5,0.3-10,0.5-15,0.7l0-1.2c0,0,0.1-12.8-0.3-19.9l-0.1-1.7
		c8.3-0.5,15.3-0.9,20.2-1.2l0.9-0.1l4.9-0.3v0.5C484.6,505,484.5,521.1,484.9,527.2z"/>
	<path class="st1" d="M433.7,527.5L433.7,527.5l0.1,2.4l-2.2,0.1c-5.4,0.1-19.5,0.7-36.1,1.3v-0.8c-0.4-5.5-0.7-13.2-0.9-21
		c-0.1-4.1-0.2-8.2-0.2-12.2c-0.2-12.2-0.1-22.3-0.1-22.3l11.7-0.7l17.4-1l54.3-3c0,0,0.3,9.1,0.6,18c0.2,5.5,0.4,11,0.6,14.2v2.3
		c-4.8,0.3-11.8,0.8-20.2,1.2c-7.7,0.4-16.6,0.9-26,1.4v0.7c0,0,0.4,7.5,0.7,10.9C433.4,520.3,433.7,527.2,433.7,527.5z"/>
	<path class="st5" d="M474.3,530.8c1.1,27.1,2.1,54.2,3.2,81.3v2.3c-3,0-5.5,0-7.4-0.1l-9.2-0.1c-31-0.4-65.4-0.6-98.5-0.9
		c-14.6-0.1-29-0.3-42.8-0.4c-1.1-10.8-1.6-61.4-1.4-78.2c2.4-0.1,6.9-0.4,12.8-0.6c5.8-0.3,12.8-0.6,20.6-0.9
		c5.6-0.2,11.5-0.5,17.6-0.8l26.3-1.1c16.5-0.7,30.7-1.2,36.1-1.3l2.2-0.1c8.4-0.2,16.9-0.5,25.3-0.9c5-0.2,10-0.5,15-0.7
		L474.3,530.8z"/>
	<path class="st4" d="M462.3,651.4c1.4,23.8-0.3,83.6-0.3,83.6s-77.7,1.2-118.5,1.3c-20,0-39.2,0-58.5,0v-0.2c0,0-0.1-21.8-0.4-31.5
		c-0.5-14.4-1.3-92.1-1.2-116.6c0.1-29.9-0.5-56-0.1-90.3c15.9-0.2,31.8-0.4,47.7,0c17.7,0.4,63-0.3,63-0.3h0.5
		c0.1,3.9,0.1,8.1,0.2,12.2l-26.5,1.3l-17.8,0.9l-20.1,1c0.1,5.4,0.5,14.8,0.9,20.3v1.1c-5.9,0.3-10.4,0.5-12.8,0.6
		c-0.2,16.8,0.3,67.5,1.4,78.2c13.7,0.1,28.1,0.3,42.8,0.4l98.8,11.1C461.5,633.7,462,646.7,462.3,651.4z M444.6,706.9
		c0-20.3,0.3-50.2-0.5-69c-18.6,1-31.7,0.3-44.5,0.8c-19.2,0.6-35.6,1.1-54.4,1.5c-7.5,0.2-24,0.7-33.5,1.7c-0.8,16-1.1,50.6,0,68.2
		c16.4-1.3,36.4-1,50.8-1.2c12.8-0.2,30.2,0.3,43-0.3C417.4,708,426.3,707.7,444.6,706.9z"/>
	<path d="M461.2,624.4l-98.8-11.1c33.1,0.3,67.5,0.5,98.5,0.9v0.3C460.9,614.5,461,618.8,461.2,624.4z"/>
	<path class="st1" d="M459.1,527.8l0,1.2c-8.5,0.4-16.9,0.7-25.3,0.9l-0.1-2.4l0,0c0-0.4-0.4-7.2-0.4-8.3
		c-0.2-3.5-0.7-10.9-0.7-10.9v-0.7c9.5-0.5,18.3-1,26-1.4l0.1,1.7C459.2,515,459.1,527.8,459.1,527.8z"/>
	<path class="st4" d="M444.1,637.9c0.9,18.8,0.5,48.7,0.5,69c-18.3,0.8-27.2,1.1-39.2,1.7c-12.8,0.6-30.2,0.1-43,0.3
		c-14.3,0.2-34.3-0.2-50.8,1.2c-1.1-17.7-0.8-52.2,0-68.2c9.5-0.9,26-1.5,33.5-1.7c18.8-0.4,35.2-0.9,54.4-1.5
		C412.4,638.2,425.5,638.9,444.1,637.9z"/>
	<path class="st3" d="M405.9,474v0.5l-11.7,0.7c0,0,0,10.1,0.1,22.3h-0.5c0,0-45.2,0.7-63,0.3c-15.9-0.4-31.8-0.2-47.7,0
		c-6.6,0.1-13.3,0.2-19.9,0.3v-1.5c-2.5-11.7-18.4-9.7-22.2,0c-0.8-4.7-1.7-13.8-7.1-15.4l-0.4-0.1l2.1-0.1
		c4.3-14.4,10.8-27.1,23.2-36.5c11.1-8.4,25.6-10.6,38.9-12.9c14.7-2.5,29.6-3.8,44.5-5.5c9.6-1.1,19.9-2.9,29.7-1.8
		C398,427.3,401.7,453.9,405.9,474z"/>
	<path class="st1" d="M395.5,530.5v0.8l-26.3,1.1l-0.1-2.8c-0.7-3.9-1-18.2-1-18.2v-0.5l26.5-1.3C394.8,517.4,395.1,525,395.5,530.5
		z"/>
	<path class="st1" d="M369.1,529.6l0.1,2.8c-6,0.2-12,0.5-17.6,0.8v-0.5c-0.8-4-1.3-19.6-1.3-19.6l-0.1-1.4l17.8-0.9v0.5
		C368.1,511.4,368.4,525.8,369.1,529.6z"/>
	<path class="st3" d="M355.6,374.1c1.7,9.8,1.7,20.7-2,30.2c-4.6,11.6-14.5,21.8-27.7,23.2c-1.5,0.2-3.1,0.2-4.6,0
		c-9.8-1.2-16.1-9.4-19.4-18.7c-4.8-13.4-3.3-29.7,4.5-41.5c6.7-10.2,25.4-20.5,37.3-13C350,358.3,354.4,367.1,355.6,374.1z"/>
	<path class="st1" d="M351.6,532.7v0.5c-7.8,0.3-14.8,0.7-20.6,0.9V533c-0.3-5.5-0.8-14.9-0.8-20.3l20.1-1l0.1,1.4
		C350.4,513.1,350.9,528.7,351.6,532.7z"/>
	<path class="st1" d="M298.5,174.3c-7.9,9.6-16.5,18.7-25.6,27.2c-5.8,5.5-14.3,13.2-25.5,22.6c-9.6-4.5-18.6-10-26.9-16.6
		c-19.8-15.4-35.8-43.6-40.1-69.8c8.3-8.3,16.7-15.4,22.6-20.6c9.2-8,18.9-15.5,28.9-22.5c3.9,9.1,7.7,18.3,9.6,22.9
		c3.9,9.3,9.1,17.9,15.3,25.8C267.9,157.9,281.1,168.9,298.5,174.3z"/>
	<path class="st5" d="M285,736.1v0.2c-10.6,0-21.3-0.1-32.1-0.1c-28.6-0.2-87.9-0.1-87.9-0.1c-0.4-56.2-0.4-70.6-1.7-119.6
		c-0.5-17.8-0.4-60.1,0.3-78c0.4-9.4,0.2-39.2,0.2-39.2s12.2-0.3,26.9-0.6l16.2-0.3c5.2-0.1,10.3-0.2,15-0.2s9.1-0.1,12.5-0.1
		c2.2,0,4.5,0,6.7,0c7.4,0,14.8-0.1,22.3-0.2c6.6-0.1,13.3-0.2,19.9-0.3c-0.4,34.3,0.2,60.4,0.1,90.3c-0.1,24.5,0.7,102.2,1.2,116.6
		C285,714.3,285,736.1,285,736.1z"/>
	<path class="st3" d="M263.4,496.5v1.5c-7.4,0.1-14.8,0.2-22.2,0.2v-1.6C245,486.8,261,484.8,263.4,496.5z"/>
	<path class="st3" d="M241.2,496.6v1.6c-2.2,0-4.5,0-6.7,0c-3.4,0-7.7,0-12.5,0.1v-0.7c0.8-5.2,4.6-18.1,11.7-16.5l0.4,0.1
		C239.5,482.7,240.4,491.8,241.2,496.6z"/>
	<path class="st3" d="M222,497.6v0.7c-4.7,0-9.8,0.1-15,0.2v-1.4c0.1-1,0.1-2,0.1-3c0.9-6.5,5.3-17.9,11.9-12.8
		C222.7,484.1,221.9,493,222,497.6z"/>
	<path class="st3" d="M207,497.1v1.4l-16.2,0.3v-1.9c-0.4-6.3,3.2-14.7,10.3-13.8c4.8,0.6,6,6,6,11C206.9,495,206.9,496.1,207,497.1
		z"/>
	<path class="st6" d="M924.3,145c-12-7.6-33.4-22.6-33.4-22.6s3.6,22.9,6.8,33c2.5,7.7,3.1,16.5,6,23.8l12-7.2
		c3.7,6.2,14.9,19.4,14.9,19.4l10.9-6.3c0,0-8.7-14.2-14.5-21c-0.6-0.7,11.6-7.2,12.7-7.7C937.3,153.8,926.8,146.6,924.3,145z"/>
	<path class="st6" d="M1117.7,668.1c-5.5,0-11,0-16.5-0.1c-18.8-0.4-58.1-1.3-58.1-1.3c-0.2,2.3-0.4,6.1-0.5,10.8
		c0,3.2-0.1,6.7-0.1,10.5c0,4,0,8.1,0.1,12.3c0,3.8,0.1,7.6,0.1,11.1c0.1,3.4,0.1,6.6,0.2,9.4c0.1,6.1,0.3,10.6,0.4,11.9
		c39.9,0.3,66.8-0.1,99.2,0.5c4.8,0.1,9.8,0.1,14.9,0.1c17-0.1,35-0.9,52.2-2c0.1-3.4,0.1-7.1,0.1-10.9c0-3,0-6.1,0-9.2
		c0-3.8,0-7.6,0-11.3c0-3.9,0-7.6-0.1-11.1c0-4.4-0.1-8.3-0.1-11.6c-0.1-5.7-0.1-9.3-0.1-9.3s-8.9-0.1-20.3-0.2
		c-10-0.1-22.1-0.1-31.9-0.2c-9.5,0-16.9,0-18.5,0.1c-2.6,0.2-5.2,0.3-7.9,0.4C1126.5,668.1,1122.1,668.2,1117.7,668.1"/>
	<path class="st6" d="M1189.2,666.3c0,0,0-3.7,0-9.2c0-3.2,0-7.1,0-11.3c0-3.6,0-7.3-0.1-11.1c0-4-0.1-8-0.2-11.7
		c-0.1-4.1-0.3-7.9-0.5-10.9c-18.8,0.1-39.2-0.3-59.1-1.2c-8.4-0.4-16.7-0.9-24.8-1.4c-19.3-1.4-38.7-0.1-58-0.8
		c-11.5-0.4-24-2.8-35.4-1.7c-0.2,4.2-0.3,8.4-0.3,12.7c0,3.4-0.1,7,0,10.5c0,4.1,0,8.2,0.1,12.3c0,3.7,0.1,7.4,0.2,11.1
		c0.1,4.3,0.2,8.5,0.2,12.5c5.3-0.3,31.9,0.5,31.7,0.5"/>
	<path class="st6" d="M1187.7,623.1c-18.7,0.3-38.3,0.4-57.6,0c-11.5-0.2-22.9-0.7-34-1.4c-17.7-1.1-83.2-2-83.2-2"/>
	<path class="st6" d="M1189,634.7c-9,0.9-34.7,0.3-58.5-0.5c-18.6-0.6-36.1-1.4-43.8-1.6c-23.7-0.6-49.9-2.2-73.6-2.4"/>
	<path class="st6" d="M1189.2,645.9c-15.2,1.4-36.5,1.6-48.8,1.3l-9.6-0.2c-17.9-0.4-38-1-54.9-2.2c-13.7-1-45.7-2.6-62.7-2.3"/>
	<path class="st6" d="M1188.3,657.2c-7.6,0.7-34.6,0.5-57.5,0.2c-13.1-0.2-24.9-0.4-31-0.6c-29-0.9-57.2-2.3-87.2-3.2"/>
	<path class="st6" d="M1208.3,677c-16.6,0.7-33.8,1.2-51,1.3c-12.2,0.1-24.3-0.1-36-0.6c-16.8-0.7-78-0.2-78-0.2"/>
	<path class="st6" d="M1209.8,688.6L1209.8,688.6c-8.3,1.1-30.7,1-52.4,0.8c-18.8-0.2-37-0.7-44.8-0.7c-22.5-0.1-47.5-1.1-69.9-0.8"
		/>
	<path class="st6" d="M1209,720.2c-16.7,0.7-34.2,1.2-51.5,1.3c-12,0.1-23.9-0.1-35.4-0.6c-16.6-0.7-77.7-0.2-79-0.2l0,0"/>
	<path class="st6" d="M1209.1,699.7c-15.1,1.6-30.2,2.4-45.3,2.4h-6.3c-17.7,0-38.1-0.1-55-1c-13.1-0.7-43.4-1.6-59.6-1"/>
	<path class="st6" d="M1209.6,711c-6.9,0.8-30.9,1.2-52.1,1.4c-13.4,0.1-25.8,0.1-31.9,0.1c-27.5-0.3-54.3-1.1-82.8-1.2"/>
	<path class="st6" d="M1130.9,666.8c0-3.1-0.1-6.2-0.1-9.4c0-3.4,0-6.8-0.1-10.3c0-4.2-0.1-8.6-0.2-12.8c-0.1-3.7-0.2-7.4-0.4-11
		c-0.2-3.8-0.4-7.5-0.8-11.1"/>
	<path class="st6" d="M1157.5,731.8c0-3.3-0.1-6.8,0-10.3c0-3,0-6,0-9.1c0-3.5,0.1-6.9,0.1-10.3c0-4.1,0-8.2-0.1-12
		c0-0.2,0-0.5,0-0.7c-0.1-2.8-0.1-7.2-0.1-11.1c0-4.7,0-8.7,0-8.7"/>
	<path class="st6" d="M1161.5,471.4c2.1,9.8,8.1,21.6,12.6,28.5c7.8,11.9,17.3,24,30.4,30.7c10.8,5.6,23.7,9.6,35.7,9.7
		c6.4,0,18.2-2.3,18.2-2.3s10.5-12,13.7-16c7.8-10,15.5-20.5,23.5-30.3c-37.7-1.9-67.2-28.8-83.3-61.5c-6.6,5.3-21.2,18-28.3,23.7
		C1180.5,456.5,1162.1,470,1161.5,471.4z"/>
	<path class="st6" d="M1267.4,494.8c-9.6,9.4-20,19.7-29.8,28"/>
	<path class="st6" d="M1256.1,492.5c-8.1,9.7-21.3,16.1-28.6,25.5"/>
	<path class="st6" d="M1245.7,489.2c-4.3,3.6-9.4,6.9-13.5,10.9"/>
	<path class="st6" d="M1237.3,483c-8,7.1-22.1,15.6-29.2,25.4"/>
	<path class="st6" d="M1229.3,477.4c-2.8,1.9-5.4,4.1-7.7,6.6"/>
	<path class="st6" d="M1223.5,470.6c-1.9,1.1-17.4,16.5-22.9,20.5"/>
	<path class="st6" d="M1143.4,590.4c25.8-8.1,46.9-26.9,58-51.6"/>
	<path class="st6" d="M1165.3,551c9.2-5.3,14.1-14.7,17.3-24.6"/>
	<path class="st6" d="M982.7,397.4c1.1,7.6-10,8.9-16.7,10.7c-10.6,2.9-15.5,4-22.4,12.2c-12.8,15.3-23.1,31-33.8,47.8
		c-5.5,8.7-23.2,40.2-28.5,62.2c-5.3,22-18.5,64.4-18.5,94.3c0,28.8,2.5,65.9,8.2,110.1c0.3,2.2-1.3,4.3-3.5,4.6c-0.2,0-0.3,0-0.5,0
		c-23.3,0.2-63.7,0-63.7,0l10.2-12c0,0-10.6-39.5-12.4-56.2c-2-18.7-5.2-39.3-3.3-57.5c2.2-21.6,5.7-50.3,13.3-73.4
		c-22.6,7.2-46.4,18.9-52.5,22c-7.4,3.7-28.3,17.5-33.7,24c-3.5,4.3-19.1,42.5-20.9,47.7c-2.5,7-15.9,36-21.7,48.4
		c-1.5,3.1-5.2,4.5-8.3,3.1c-6.8-3-17.9-7.8-23.1-10.3c-7.9-3.7-23.4-13.9-23.4-13.9s9.6-5,12.8-5.4c5.2-12.3,8.5-24,11.5-34.1
		c4.2-13.9,8.7-28.1,13.9-41.7c3.2-8.3,8.2-21,13.3-28.2c6.3-9.1,18.1-21.3,26.8-27.6c15.5-11.2,38-22.7,54.8-33.7
		c9.9-36.9,11.8-63.5,13.3-83.4c1-12.2,4.3-41,4.4-41.7l0,0"/>
	<path class="st6" d="M917.3,389.4c-6.9,2.1-11,7.1-15.5,12.7c-3.8,4.7-7.7,9.3-11.6,13.8c-3.6,4.2-7.1,8.4-10.4,12.8
		c-8.4,10.8-15.1,21.1-18.9,27.3c-2,3.3-6.1,4.7-9.7,3.5c-4.3-1.5-9.3-3.1-14.6-4.6c-6.5-1.9-13.2-3.3-19.8-4.4
		c-3.3-0.5-6.5-0.8-9.5-1"/>
	<path class="st6" d="M837.8,455.4c-0.5-0.1-0.9-0.3-1.4-0.5c-9.5-4.5-10-24.7-2.3-36.2c5.6-8.5,14.3-16.5,23.2-20.6
		c13.3-6,35-1,32.8,17.8"/>
	<path class="st6" d="M816.9,449.6c0-0.2,0-0.5,0-0.8c-0.5-11.5,2.2-76.3,2.2-76.3"/>
	<path class="st6" d="M837.8,429.8c6.6-4.9,7.3-0.5,10.4,0.7s9-1.7,9,3.3"/>
	<line class="st6" x1="846.5" y1="417.1" x2="849.6" y2="413.3"/>
	<path class="st6" d="M1009.5,337.1c-0.7,2.2-1.1,4.5-1.4,6.8c-0.1,1-0.2,2.1-0.3,3.3c-0.2,1.7-0.6,3.6-1,5.7
		c-0.8,4.2-1.9,9-3.1,13.9c-1.1,4.4-2.2,8.9-3.3,13s-2.1,7.7-3,10.8c-1.4,5.1-2.4,8.4-2.4,8.4s-4.9-0.7-12.2-1.7
		c-17-2.3-46.9-6.3-58.6-7.2c-1.9-0.1-4.2-0.4-6.8-0.7c-17-2.1-46-7.5-68.7-11.9c-13-2.5-24-4.6-29.5-5.5c-0.8-0.1-1.4-0.2-1.9-0.3
		c-8.5-1.2-28.2-4.6-38.6-6.4l-6.7-1.2c0,0,0.7-3.8,1.8-9.8c0.6-3,1.2-6.5,2-10.4c0.8-4.2,1.6-8.7,2.5-13.4
		c0.9-4.5,1.8-9.2,2.6-13.8l0,0c0.9-4.6,1.7-9.1,2.6-13.3c1-5.1,1.9-9.8,2.7-13.7c1.4-6.8,2.4-11.2,2.5-11c0.8,0.7,26.6,4,33.6,5
		s26.2,3.5,47.2,6.3c23.9,3.2,50.2,6.7,63.2,8.4"/>
	<path class="st6" d="M848.7,377c1.1-3.4,2.2-6.9,3.1-10.4c1-3.7,2-7.5,2.8-11.3c1-4.1,1.9-8.2,2.8-12.4c1-4.9,2-9.8,3.1-14.6
		c0.2-0.9,0.4-1.9,0.6-2.8c0.5-2.2,1.3-5.7,2.2-9.5c1.1-4.7,2.4-10.1,3.5-14.6l2.5-10.1"/>
	<path class="st6" d="M932.6,298.5c11.5,1.8,23.6,9.4,34.6,15.9c3.4,2,6.7,3.9,9.9,5.5c10.8,5.3,21.6,11,32.7,15.7
		c5,2.1,10.1,4,15.4,5.6c10,3.1,24.9,6,24.9,6s19.8-13.6,28-21.6c8-7.9,18.3-19.8,24.2-29.7c-18.8,1.3-37.8,0.2-56.3-3.4
		c-12.7-2.3-23.5-7.7-36.3-10.1c-14.8-2.5-29.9-1.6-44.3,2.8C954.1,288.7,943.1,293.1,932.6,298.5"/>
	<path class="st6" d="M1069.8,305.6c-3.5,5.5-15,19-20.3,23.7"/>
	<path class="st6" d="M1056.1,304.1c-4.3,4.5-9.8,10.8-14.7,15.1"/>
	<path class="st6" d="M1042.5,300.7c-5.6,8.6-17.7,19.3-23.4,27.4"/>
	<path class="st6" d="M1028.7,298.4c-1.9,3.5-5.2,5.9-7.6,8.6"/>
	<path class="st6" d="M786.7,290c0,0,53.9,7.7,80.1,11.5l9,1.3c14.9,2.2,73.4,11.1,87.7,13.8c2.2,0.4,5,0.9,8.1,1.5l2.2,0.4"/>
	<path class="st6" d="M783.9,303.6c22.7,2.5,44.6,8.2,67.7,10.9c3.9,0.5,7.9,0.9,11.8,1.5c19.7,2.5,39.3,5.7,58.9,8.8
		c18.9,3,72,12.3,72,12.3"/>
	<path class="st6" d="M781.4,317c0,0,52.6,7.5,79.1,11.3l10,1.4c14.9,2.1,73.4,11.1,87.7,13.8c10.8,2,36.8,6.5,47,9.1"/>
	<path class="st6" d="M778.5,330.6c22.7,2.5,44.5,8.2,67.6,10.9c3.8,0.4,7.5,0.9,11.2,1.4c19.9,2.6,39.6,5.7,59.5,8.9
		c18.9,3,67.3,12.1,86.3,14.9"/>
	<path class="st6" d="M776,344.1c0,0,52,7.4,78.7,11.3l10.4,1.5c14.9,2.2,73.4,11.1,87.7,13.8c10.8,2,36.8,6.5,47,9.1"/>
	<path class="st6" d="M774.3,354.4c22.7,2.5,43.5,8.2,66.5,10.9c3.7,0.4,7.3,0.9,11,1.3c20,2.6,39.8,5.8,59.7,9
		c18.9,3,66.2,12.1,85.2,14.9"/>
	<path class="st6" d="M924.7,509.2c44.2-4.2,88.6-4.2,132.8,0"/>
	<path class="st6" d="M945.4,529.8c15.7-1.2,33.4-0.9,48.8,1.7"/>
	<path class="st6" d="M994.2,435.1c8.6-0.8,30.4-1.8,38.7,1.3"/>
	<line class="st6" x1="856.8" y1="420.3" x2="859.9" y2="416.5"/>
	<path class="st6" d="M220.5,207.5c-19.8-15.4-35.8-43.6-40.1-69.8c8.3-8.3,16.7-15.4,22.6-20.6c9.2-8,18.9-15.5,28.9-22.5
		c3.9,9.1,7.7,18.3,9.6,22.9c3.9,9.3,9.1,17.9,15.3,25.8c11.2,14.5,24.4,25.5,41.7,31c-7.9,9.6-16.5,18.7-25.6,27.2
		c-5.8,5.4-14.3,13.2-25.5,22.5C237.7,219.6,228.7,214.1,220.5,207.5z"/>
	<path class="st6" d="M195.3,145.6c8.7-6.3,25.1-18.8,32.1-27"/>
	<path class="st6" d="M200.2,157.3c4.9-3.6,11.1-7.3,15.4-11.1"/>
	<path class="st6" d="M206,168.2c8.8-8.9,20-14.6,28.3-23.1"/>
	<path class="st6" d="M221.8,140.7c1.5-1.1,3.2-2.2,4.6-3.3"/>
	<path class="st6" d="M178.5,191.3c-10.2,10-22.8,17.6-29.3,20.3c-11.4,4.8-28.8,7.4-40.8,4.7"/>
	<path class="st6" d="M196.1,210c-4.5,5.9-17.7,15.8-24.8,17.8"/>
	<path class="st6" d="M212.1,176.3c0,0,10-8.7,14.6-12.4"/>
	<path class="st6" d="M394,497.4c0,0-45.2,0.7-63,0.3c-15.9-0.4-31.8-0.2-47.7,0c-6.6,0.1-13.3,0.2-19.9,0.3
		c-7.4,0.1-14.8,0.2-22.3,0.2c-2.2,0-4.5,0-6.7,0c-3.4,0-7.7,0-12.5,0.1s-9.8,0.1-15,0.2l-16.2,0.3c-14.7,0.3-26.9,0.6-26.9,0.6
		s0.2,29.9-0.2,39.2c-0.7,17.9-0.8,60.2-0.3,78c1.3,48.9,1.3,63.4,1.7,119.6c0,0,59.2-0.1,87.9,0.1c10.8,0.1,21.5,0.1,32.1,0.1
		c19.3,0.1,38.5,0.1,58.5,0c40.8-0.1,118.5-1.3,118.5-1.3s1.7-59.9,0.3-83.6c-0.3-4.8-0.8-17.8-1.1-27c-0.2-5.7-0.3-9.9-0.3-9.9"/>
	<path class="st6" d="M311.7,710c-1.1-17.7-0.8-52.2,0-68.2c9.5-0.9,26-1.5,33.5-1.7c18.8-0.4,35.2-0.9,54.4-1.5
		c12.8-0.4,25.9,0.2,44.5-0.8c0.9,18.8,0.5,48.7,0.5,69c-18.3,0.8-27.2,1.1-39.2,1.7c-12.8,0.6-30.2,0.1-43,0.3
		C348.1,709.1,328.1,708.7,311.7,710z"/>
	<path class="st6" d="M366.7,674c6.3,0.4,17.4-0.5,23.7-0.9"/>
	<path class="st6" d="M331.1,534.1c-5.9,0.3-10.4,0.5-12.8,0.6c-0.2,16.8,0.3,67.5,1.4,78.2c13.7,0.1,28.1,0.3,42.8,0.4
		c33.1,0.3,67.5,0.5,98.5,0.9l9.2,0.1c1.9,0,4.5,0.1,7.4,0.1c15.3,0.1,41.7,0,53.7-0.4c15.4-0.5,44.5-2.1,62.1-3.9
		c-0.1-29.7-0.3-57.8-3.8-87.2c-3.6,0-7.1,0-10.5,0c-17.4,0.1-31.9,1-48.5,2c-15.1,0.9-30.3,1.9-45.6,2.7c-3.6,0.2-7.2,0.4-10.7,0.6
		c-5,0.3-10,0.5-15,0.7c-8.5,0.4-16.9,0.7-25.3,0.9l-2.2,0.1c-5.4,0.1-19.5,0.7-36.1,1.3l-26.3,1.1c-6,0.2-12,0.5-17.6,0.8
		C343.9,533.5,336.8,533.8,331.1,534.1z"/>
	<path class="st6" d="M477.5,612.2c-1.1-27.1-2.1-54.2-3.2-81.3"/>
	<path class="st6" d="M521.7,569c0,0,21.2-1.1,29.4-1.9"/>
	<path class="st6" d="M432.6,507.6c9.5-0.5,18.3-1,26-1.4c8.3-0.5,15.3-0.9,20.2-1.2l0.9-0.1l4.9-0.3c32.3-2.2,83.9-4.2,93.8-3.7
		c-0.1,7.2,0.6,19.9,0.6,19.9"/>
	<path class="st6" d="M331,533c-0.3-5.5-0.8-14.9-0.9-20.3l20.1-1l17.8-0.9l26.5-1.3"/>
	<path class="st6" d="M484.9,527.2c-0.4-6.1-0.2-22.2-0.2-22.2"/>
	<path class="st6" d="M459.1,527.8c0,0,0.1-12.8-0.3-19.9"/>
	<path class="st6" d="M433.7,527.6L433.7,527.6c0-0.4-0.4-7.2-0.4-8.3c-0.2-3.4-0.7-10.9-0.7-10.9"/>
	<path class="st6" d="M433.7,526.8c0,0.4,0,0.6,0.1,0.7"/>
	<path class="st6" d="M395.5,530.5c-0.4-5.5-0.7-13.2-0.9-21c-0.1-4.1-0.2-8.2-0.2-12.2c-0.2-12.2-0.1-22.3-0.1-22.3l11.7-0.7
		l17.4-1l54.3-3c0,0,0.3,9.1,0.6,18c0.2,5.5,0.4,11,0.6,14.2"/>
	<path class="st6" d="M369.1,529.6c-0.7-3.9-1-18.2-1-18.2"/>
	<path class="st6" d="M351.6,532.7c-0.8-4-1.3-19.6-1.3-19.6"/>
	<path class="st6" d="M285,736.1c0,0-0.1-21.8-0.4-31.5c-0.5-14.4-1.3-92.1-1.2-116.6c0.1-29.9-0.5-56-0.1-90.3"/>
	<path class="st6" d="M190.8,496.8c-0.4-6.3,3.2-14.7,10.3-13.8c4.8,0.6,6,6,6,11c0,1,0,2.1-0.1,3c-0.1-1,0-2,0.1-3
		c0.9-6.5,5.3-17.9,11.9-12.8c3.7,2.8,2.9,11.7,3,16.3c0.8-5.2,4.6-18.1,11.7-16.5l0.4,0.1c5.4,1.6,6.4,10.7,7.1,15.4
		c3.8-9.7,19.8-11.8,22.2,0"/>
	<path class="st6" d="M235.8,481c4.3-14.4,10.8-27.1,23.2-36.5c11.1-8.4,25.6-10.6,38.9-12.9c14.7-2.5,29.6-3.8,44.5-5.5
		c9.7-1.1,19.9-2.9,29.7-1.8c25.9,2.9,29.6,29.5,33.9,49.7"/>
	<path class="st6" d="M321.3,427.4c-9.8-1.2-16.1-9.4-19.4-18.7c-4.8-13.4-3.3-29.7,4.5-41.5c6.7-10.2,25.4-20.5,37.3-13
		c6.3,4,10.8,12.8,12,19.8c1.7,9.8,1.7,20.7-2,30.2c-4.6,11.6-14.5,21.8-27.7,23.2C324.4,427.6,322.8,427.6,321.3,427.4z"/>
	<path class="st6" d="M328.2,368.1c2.4-2.5,5.2-1.2,7.2,0.5"/>
	<line class="st6" x1="327.1" y1="390.9" x2="328.9" y2="386.1"/>
	<line class="st6" x1="341.5" y1="393.1" x2="342.8" y2="388.9"/>
	<path class="st6" d="M324.2,402.4c3.6,5.4,7.8,5.4,13.5,4.7"/>
	<path class="st6" d="M475.7,452.3l0.1-0.1c1.9-3.7,16.7-24.6,20.9-15.4c1.6,3.6-2.3,7.4-4.4,10.4c-3.3,4.6-6,10-9.2,14.3
		c2.5-2.1,8.9-8.2,12.5-7.8c5.2,0.7,1.9,6.7,0.5,9.2c-5.2,9-11.8,16.6-17.4,25.5"/>
	<path class="st6" d="M423.3,472.9c2.5-4.7,3.3-11.1,4.3-16.3s0.3-14.6,3.2-19c6.8-10.1,10.5,9.1,10.6,13.1
		c4.7-8.5,10.5-17.7,15.8-25.7c2-3.1,4.2-7.8,8.6-7.2c5.6,0.8,3.4,6.7,2.3,10.6c-1.3,4.6-3,10.6-5.5,14.6
		c6.1-6.3,9.4-16.3,16.4-21.8c3-2.4,8.2-3.3,10.1,1.3c1.6,4-2.4,10-4.4,13.7c-2.9,5.3-6.8,10.4-8.9,15.9"/>
	<path class="st6" d="M343.9,378.3c1.2,0.3,2.3,0.9,3.3,1.6"/>
	<path class="st6" d="M476.2,268.9c-23.1-0.3-86.7,1.2-93.2,0c-10.3-2-18.5-6.4-21.3-15.2c-4-12.9-2.6-46.6,2.7-59.1
		c4.4-10.4,19.7-11.4,32-11.9c68.9-2.8,123.4-0.5,191.9-0.5c20.3,0,55.3,1.9,75.6,1c13.9-0.6,29.5-0.1,43.6-0.1
		c7.6,0,22.6,1.1,28.2,5.7c5.4,4.4,6.4,15.3,6.7,21.8c0.4,9,0.5,18,0.6,26.9c0.1,4.9,0.9,18.9-5.3,25.2c-5.6,5.6-23.6,5-39.9,5.5
		c-28.5,1-107.2,1-124.7,0.4C553.6,268.1,495.9,269.1,476.2,268.9z"/>
	<path class="st6" d="M388.7,247.3c0-7.7,1.2-43.8,1.2-43.8"/>
	<path class="st6" d="M702.5,235.2c-0.7,0.7-1.5,1.3-2.3,1.9c-15.3,10-29.1-7.8-22.5-21.1s17.2-13.5,25.5-5.9
		C709.8,216,708.7,228.8,702.5,235.2z"/>
	<path class="st6" d="M703.3,234.6c4.1,3.3,11.1,11.1,11.1,11.1"/>
	<line class="st6" x1="362.4" y1="613.4" x2="461.2" y2="624.4"/>
	<polyline class="st6" points="1117.7,668.1 1117.7,668.1 1043.3,677.4 	"/>
	<polyline class="st6" points="967.2,314.4 971.6,318 994.6,336.6 1007.7,347.2 	"/>
</g>
</svg>
